<svg width="2326" height="735" viewBox="0 0 2326 735" fill="none" xmlns="http://www.w3.org/2000/svg">
<g clip-path="url(#clip0_34_1014)">
<path d="M0.413122 315.72C0.413092 248.019 0.413054 160.613 0.413134 149.753C0.413138 149.201 0.860844 148.766 1.41312 148.766L82.666 148.766C83.2183 148.766 83.666 148.318 83.666 147.766V3.03136C83.666 2.1471 84.7294 1.69798 85.3633 2.31454L113.19 29.3818C113.288 29.4779 113.366 29.5933 113.418 29.7209L161.918 148.584C161.967 148.704 161.992 148.832 161.992 148.962V181.267C161.992 181.819 162.44 182.267 162.992 182.267H2324.06C2324.61 182.267 2325.06 182.715 2325.06 183.267V337.512C2325.06 338.064 2324.61 338.512 2324.06 338.512H142.903C142.351 338.512 141.903 338.96 141.903 339.512V733.382C141.903 734.093 141.204 734.579 140.552 734.295C132.701 730.868 92.7354 712.363 76.7801 684.272C59.0474 653.053 0.413145 433.501 0.413145 383.489L0.413122 315.72Z" fill="#9BE1FF" stroke="black" stroke-width="2"/>
<path d="M168.967 253.615C171.18 253.615 172.807 254.303 173.849 255.679C174.909 257.036 175.439 258.933 175.439 261.369C175.439 263.787 174.909 265.73 173.849 267.199C172.807 268.669 171.171 269.403 168.939 269.403C166.708 269.403 165.09 268.752 164.086 267.451C163.1 266.13 162.607 264.159 162.607 261.537C162.607 256.255 164.727 253.615 168.967 253.615ZM165.62 265.721C165.862 266.391 166.261 266.893 166.819 267.227C167.377 267.543 168.047 267.702 168.828 267.702C169.627 267.702 170.278 267.581 170.78 267.339C171.282 267.097 171.664 266.809 171.924 266.474C172.203 266.139 172.408 265.675 172.538 265.079C172.761 264.15 172.872 262.959 172.872 261.509C172.872 257.399 171.571 255.344 168.967 255.344C168.261 255.344 167.647 255.474 167.126 255.735C166.624 255.995 166.243 256.311 165.982 256.683C165.722 257.055 165.517 257.529 165.369 258.106C165.146 258.998 165.034 260.003 165.034 261.118C165.034 262.234 165.071 263.117 165.146 263.768C165.22 264.401 165.378 265.052 165.62 265.721Z" fill="black"/>
<path d="M293.712 254.842C293.712 254.842 293.6 258.943 293.377 267.144L295.888 267.367C295.888 267.888 295.73 268.445 295.414 269.041H288.077L288.021 268.092C288.654 267.906 289.76 267.674 291.341 267.395C291.304 266.167 291.257 264.336 291.201 261.899C291.146 259.445 291.099 257.604 291.062 256.376C289.556 257.064 288.505 257.436 287.91 257.492C287.594 256.971 287.417 256.395 287.38 255.763L292.819 253.921C293.377 254.331 293.675 254.637 293.712 254.842Z" fill="black"/>
<path d="M424.931 264.745C425.061 264.726 425.219 264.717 425.405 264.717C425.74 264.717 426.065 264.763 426.381 264.856C426.604 265.972 426.716 267.367 426.716 269.041H416.953C416.73 268.65 416.618 268.306 416.618 268.008C416.618 267.692 416.627 267.497 416.646 267.423C420.495 263.759 422.569 261.769 422.866 261.453C423.164 261.118 423.462 260.626 423.759 259.975C424.075 259.324 424.233 258.673 424.233 258.022C424.233 257.353 423.973 256.739 423.452 256.181C422.95 255.623 422.178 255.344 421.137 255.344C420.56 255.344 420.068 255.4 419.658 255.511L418.989 258.943C418.803 258.961 418.598 258.97 418.375 258.97C418.152 258.97 417.817 258.933 417.371 258.859C417.074 258.059 416.915 256.953 416.897 255.539C417.362 255.093 418.022 254.675 418.877 254.284C419.751 253.875 420.579 253.67 421.36 253.67C422.997 253.67 424.308 254.089 425.293 254.926C426.297 255.744 426.8 256.646 426.8 257.631C426.8 258.896 426.53 259.993 425.991 260.923C425.47 261.853 424.596 262.839 423.369 263.88L419.631 267.06L419.714 267.395L424.596 267.367C424.689 266.102 424.8 265.228 424.931 264.745Z" fill="black"/>
<path d="M553.225 258.245C553.225 256.255 552.091 255.26 549.822 255.26C549.45 255.26 549.023 255.326 548.539 255.456L547.87 258.915C547.144 258.915 546.605 258.887 546.252 258.831C545.935 257.901 545.777 256.795 545.777 255.511C546.168 255.065 546.81 254.647 547.702 254.256C548.613 253.847 549.404 253.643 550.073 253.643C551.728 253.643 553.086 254.061 554.146 254.898C555.224 255.716 555.764 256.702 555.764 257.855C555.764 259.863 554.574 261.379 552.193 262.402C553.328 262.402 554.332 262.755 555.206 263.462C556.099 264.168 556.545 265.182 556.545 266.502C556.545 267.822 556.154 268.975 555.373 269.961C554.592 270.965 553.681 271.691 552.64 272.137C551.617 272.602 550.482 272.834 549.236 272.834C548.009 272.834 546.717 272.602 545.359 272.137C545.396 271.43 545.508 270.937 545.694 270.658C545.75 270.658 545.926 270.696 546.224 270.77C546.521 270.844 546.782 270.9 547.005 270.937C547.637 271.049 548.186 271.105 548.651 271.105C549.115 271.105 549.441 271.095 549.627 271.077C549.831 271.058 550.138 271.012 550.547 270.937C550.975 270.863 551.366 270.733 551.719 270.547C552.091 270.361 552.454 270.138 552.807 269.877C553.588 269.264 553.979 268.38 553.979 267.227C553.979 266.056 553.616 265.182 552.891 264.605C552.184 264.029 551.217 263.74 549.99 263.74C549.692 263.74 549.143 263.778 548.344 263.852C548.269 263.759 548.232 263.545 548.232 263.21C548.232 262.857 548.26 262.522 548.316 262.206L549.543 262.039C550.547 261.909 551.412 261.5 552.137 260.812C552.863 260.105 553.225 259.249 553.225 258.245Z" fill="black"/>
<path d="M681.384 266.279L681.105 256.181L674.996 266.335C677.823 266.298 679.952 266.279 681.384 266.279ZM683.755 253.977L683.476 266.279C684.164 266.279 685.178 266.298 686.517 266.335C686.517 267.116 686.424 267.683 686.238 268.036H683.448L683.253 272.695C682.974 272.751 682.695 272.778 682.416 272.778C682.137 272.778 681.877 272.741 681.635 272.667L681.412 268.036H672.96C672.737 267.72 672.625 267.395 672.625 267.06C672.625 266.707 672.634 266.521 672.653 266.502L680.073 253.977H683.755Z" fill="black"/>
<path d="M811.225 260.923C813.066 260.923 814.535 261.444 815.632 262.485C816.748 263.508 817.306 264.921 817.306 266.725C817.306 268.511 816.59 269.97 815.158 271.105C813.726 272.258 812.117 272.834 810.332 272.834C808.565 272.834 807.161 272.602 806.12 272.137C806.12 271.374 806.241 270.882 806.482 270.658C807.301 270.956 808.435 271.105 809.886 271.105C811.429 271.105 812.619 270.77 813.456 270.101C813.809 269.803 814.116 269.375 814.377 268.817C814.637 268.241 814.767 267.571 814.767 266.809C814.767 265.507 814.451 264.494 813.819 263.768C813.186 263.025 812.285 262.653 811.113 262.653C810.22 262.653 809.486 262.727 808.909 262.876C808.351 263.006 808.045 263.071 807.989 263.071C807.598 262.848 807.291 262.578 807.068 262.262L806.761 253.977H816.246C816.246 255.595 816.134 256.99 815.911 258.161C815.595 258.236 815.111 258.273 814.46 258.273C814.349 257.827 814.237 256.953 814.126 255.651H809.272L809.188 261.202C809.746 261.016 810.425 260.923 811.225 260.923Z" fill="black"/>
<path d="M937.387 260.142C937.368 260.291 937.359 260.635 937.359 261.174C937.359 261.713 937.415 262.327 937.526 263.015C937.638 263.703 937.833 264.429 938.112 265.191C938.391 265.935 938.828 266.539 939.423 267.004C940.018 267.469 940.725 267.702 941.543 267.702C942.845 267.702 943.793 267.265 944.388 266.391C944.983 265.516 945.281 264.363 945.281 262.932C945.281 261.5 945.03 260.421 944.528 259.696C944.044 258.952 943.105 258.58 941.71 258.58C940.316 258.58 938.874 259.101 937.387 260.142ZM941.85 256.85C943.71 256.85 945.169 257.38 946.229 258.44C947.308 259.482 947.847 261.044 947.847 263.127C947.847 265.191 947.252 266.753 946.062 267.813C944.89 268.873 943.356 269.403 941.459 269.403C939.618 269.403 938.066 268.687 936.801 267.255C936.15 266.53 935.639 265.507 935.267 264.187C934.895 262.848 934.709 261.379 934.709 259.779C934.709 258.18 934.913 256.785 935.323 255.595C935.732 254.405 936.271 253.41 936.94 252.61C937.628 251.792 938.419 251.095 939.311 250.518C941.004 249.402 942.854 248.845 944.863 248.845C945.086 249.068 945.197 249.561 945.197 250.323C942.705 250.509 940.809 251.299 939.507 252.694C938.224 254.07 937.48 256.051 937.275 258.636C937.796 258.152 938.53 257.734 939.479 257.38C940.427 257.027 941.218 256.85 941.85 256.85Z" fill="black"/>
<path d="M1065.69 255.26C1065.69 254.814 1065.72 254.377 1065.78 253.949L1076.21 253.977C1076.58 254.349 1076.77 254.851 1076.77 255.484C1075.56 259.184 1074.42 262.569 1073.34 265.637C1072.26 268.687 1071.4 271.114 1070.77 272.918C1070.07 272.825 1069.56 272.648 1069.27 272.388L1074.26 255.651H1068.51L1067.81 259.054C1067.09 259.054 1066.55 259.017 1066.2 258.943C1065.86 257.864 1065.69 256.637 1065.69 255.26Z" fill="black"/>
<path d="M1207.71 266.629C1207.71 268.265 1207.21 269.632 1206.21 270.729C1205.2 271.827 1203.68 272.375 1201.63 272.375C1200.16 272.375 1198.81 271.985 1197.56 271.204C1196.93 270.813 1196.41 270.237 1196 269.474C1195.61 268.712 1195.41 267.819 1195.41 266.796C1195.41 264.62 1196.66 262.686 1199.15 260.994L1199.07 260.938C1197.89 260.38 1197.07 259.757 1196.58 259.069C1196.1 258.363 1195.86 257.303 1195.86 255.889C1195.86 254.457 1196.37 253.304 1197.39 252.43C1198.43 251.556 1199.86 251.119 1201.66 251.119C1203.48 251.119 1204.9 251.575 1205.9 252.486C1206.92 253.379 1207.43 254.532 1207.43 255.945C1207.43 257.34 1207.13 258.428 1206.51 259.209C1205.9 259.971 1204.99 260.697 1203.78 261.385C1206.4 262.965 1207.71 264.713 1207.71 266.629ZM1204.23 270.255C1204.84 269.065 1205.15 267.912 1205.15 266.796C1205.15 265.68 1204.81 264.779 1204.14 264.09C1203.49 263.384 1202.32 262.593 1200.63 261.719C1199.75 262.37 1199.09 263.077 1198.65 263.839C1198.2 264.602 1197.98 265.485 1197.98 266.489C1197.98 267.494 1198.1 268.275 1198.34 268.833C1198.58 269.372 1198.9 269.772 1199.29 270.032C1200.03 270.516 1200.75 270.757 1201.44 270.757C1202.63 270.757 1203.47 270.627 1203.98 270.367L1204.23 270.255ZM1204.87 255.834C1204.87 253.825 1203.79 252.821 1201.63 252.821C1200.66 252.821 1199.83 252.97 1199.12 253.267C1198.66 254.104 1198.42 254.969 1198.42 255.861C1198.42 257.87 1199.43 259.311 1201.44 260.185C1201.55 260.222 1201.86 260.371 1202.36 260.631C1204.03 259.59 1204.87 257.991 1204.87 255.834Z" fill="black"/>
<path d="M1332.45 255.233C1329.92 255.233 1328.66 256.823 1328.66 260.003C1328.66 261.323 1329.02 262.336 1329.74 263.043C1330.47 263.731 1331.45 264.075 1332.67 264.075C1333.03 264.075 1333.57 263.917 1334.29 263.601C1335.04 263.285 1335.57 263.015 1335.91 262.792C1336.02 262.16 1336.08 261.481 1336.08 260.756C1336.08 260.012 1336.02 259.361 1335.91 258.803C1335.8 258.227 1335.62 257.659 1335.38 257.101C1335.14 256.525 1334.77 256.069 1334.26 255.735C1333.76 255.4 1333.16 255.233 1332.45 255.233ZM1332.17 265.721C1330.33 265.721 1328.86 265.154 1327.76 264.019C1326.67 262.885 1326.12 261.444 1326.12 259.696C1326.12 257.948 1326.67 256.497 1327.76 255.344C1328.88 254.191 1330.43 253.615 1332.42 253.615C1334.43 253.615 1335.96 254.265 1337 255.567C1338.04 256.869 1338.56 258.682 1338.56 261.007C1338.56 264.429 1337.76 267.237 1336.16 269.431C1335.36 270.528 1334.29 271.374 1332.95 271.969C1331.61 272.583 1330.05 272.89 1328.27 272.89C1328.14 272.723 1328.07 272.453 1328.07 272.081L1328.1 271.663C1330.52 271.477 1332.28 270.807 1333.4 269.654C1334.51 268.501 1335.26 266.772 1335.63 264.466C1335.18 264.838 1334.62 265.145 1333.93 265.386C1333.26 265.609 1332.67 265.721 1332.17 265.721Z" fill="black"/>
<path d="M1458.12 254.842C1458.12 254.842 1458.01 258.943 1457.79 267.144L1460.3 267.367C1460.3 267.888 1460.14 268.445 1459.82 269.041H1452.49L1452.43 268.092C1453.06 267.906 1454.17 267.674 1455.75 267.395C1455.71 266.167 1455.67 264.336 1455.61 261.899C1455.55 259.445 1455.51 257.604 1455.47 256.376C1453.96 257.064 1452.91 257.436 1452.32 257.492C1452 256.971 1451.83 256.395 1451.79 255.763L1457.23 253.921C1457.79 254.331 1458.08 254.637 1458.12 254.842ZM1468.73 253.615C1470.94 253.615 1472.57 254.303 1473.61 255.679C1474.67 257.036 1475.2 258.933 1475.2 261.369C1475.2 263.787 1474.67 265.73 1473.61 267.199C1472.57 268.669 1470.93 269.403 1468.7 269.403C1466.47 269.403 1464.85 268.752 1463.85 267.451C1462.86 266.13 1462.37 264.159 1462.37 261.537C1462.37 256.255 1464.49 253.615 1468.73 253.615ZM1465.38 265.721C1465.62 266.391 1466.02 266.893 1466.58 267.227C1467.14 267.543 1467.81 267.702 1468.59 267.702C1469.39 267.702 1470.04 267.581 1470.54 267.339C1471.05 267.097 1471.43 266.809 1471.69 266.474C1471.97 266.139 1472.17 265.675 1472.3 265.079C1472.52 264.15 1472.64 262.959 1472.64 261.509C1472.64 257.399 1471.33 255.344 1468.73 255.344C1468.02 255.344 1467.41 255.474 1466.89 255.735C1466.39 255.995 1466.01 256.311 1465.75 256.683C1465.49 257.055 1465.28 257.529 1465.13 258.106C1464.91 258.998 1464.8 260.003 1464.8 261.118C1464.8 262.234 1464.83 263.117 1464.91 263.768C1464.98 264.401 1465.14 265.052 1465.38 265.721Z" fill="black"/>
<path d="M1587.42 254.842C1587.42 254.842 1587.31 258.943 1587.09 267.144L1589.6 267.367C1589.6 267.888 1589.44 268.445 1589.13 269.041H1581.79L1581.73 268.092C1582.37 267.906 1583.47 267.674 1585.05 267.395C1585.02 266.167 1584.97 264.336 1584.91 261.899C1584.86 259.445 1584.81 257.604 1584.77 256.376C1583.27 257.064 1582.22 257.436 1581.62 257.492C1581.31 256.971 1581.13 256.395 1581.09 255.763L1586.53 253.921C1587.09 254.331 1587.39 254.637 1587.42 254.842ZM1597.48 254.842C1597.48 254.842 1597.36 258.943 1597.14 267.144L1599.65 267.367C1599.65 267.888 1599.49 268.445 1599.18 269.041H1591.84L1591.79 268.092C1592.42 267.906 1593.52 267.674 1595.1 267.395C1595.07 266.167 1595.02 264.336 1594.97 261.899C1594.91 259.445 1594.86 257.604 1594.83 256.376C1593.32 257.064 1592.27 257.436 1591.67 257.492C1591.36 256.971 1591.18 256.395 1591.14 255.763L1596.58 253.921C1597.14 254.331 1597.44 254.637 1597.48 254.842Z" fill="black"/>
<path d="M1716.1 254.842C1716.1 254.842 1715.99 258.943 1715.77 267.144L1718.28 267.367C1718.28 267.888 1718.12 268.445 1717.81 269.041H1710.47L1710.41 268.092C1711.05 267.906 1712.15 267.674 1713.73 267.395C1713.7 266.167 1713.65 264.336 1713.59 261.899C1713.54 259.445 1713.49 257.604 1713.45 256.376C1711.95 257.064 1710.9 257.436 1710.3 257.492C1709.99 256.971 1709.81 256.395 1709.77 255.763L1715.21 253.921C1715.77 254.331 1716.07 254.637 1716.1 254.842ZM1728.69 264.745C1728.82 264.726 1728.98 264.717 1729.17 264.717C1729.5 264.717 1729.83 264.763 1730.14 264.856C1730.37 265.972 1730.48 267.367 1730.48 269.041H1720.72C1720.49 268.65 1720.38 268.306 1720.38 268.008C1720.38 267.692 1720.39 267.497 1720.41 267.423C1724.26 263.759 1726.33 261.769 1726.63 261.453C1726.93 261.118 1727.22 260.626 1727.52 259.975C1727.84 259.324 1728 258.673 1728 258.022C1728 257.353 1727.74 256.739 1727.22 256.181C1726.71 255.623 1725.94 255.344 1724.9 255.344C1724.32 255.344 1723.83 255.4 1723.42 255.511L1722.75 258.943C1722.57 258.961 1722.36 258.97 1722.14 258.97C1721.92 258.97 1721.58 258.933 1721.13 258.859C1720.84 258.059 1720.68 256.953 1720.66 255.539C1721.13 255.093 1721.79 254.675 1722.64 254.284C1723.51 253.875 1724.34 253.67 1725.12 253.67C1726.76 253.67 1728.07 254.089 1729.06 254.926C1730.06 255.744 1730.56 256.646 1730.56 257.631C1730.56 258.896 1730.29 259.993 1729.75 260.923C1729.23 261.853 1728.36 262.839 1727.13 263.88L1723.39 267.06L1723.48 267.395L1728.36 267.367C1728.45 266.102 1728.56 265.228 1728.69 264.745Z" fill="black"/>
<path d="M1845.29 254.842C1845.29 254.842 1845.18 258.943 1844.96 267.144L1847.47 267.367C1847.47 267.888 1847.31 268.445 1846.99 269.041H1839.66L1839.6 268.092C1840.23 267.906 1841.34 267.674 1842.92 267.395C1842.88 266.167 1842.84 264.336 1842.78 261.899C1842.72 259.445 1842.68 257.604 1842.64 256.376C1841.13 257.064 1840.08 257.436 1839.49 257.492C1839.17 256.971 1839 256.395 1838.96 255.763L1844.4 253.921C1844.96 254.331 1845.25 254.637 1845.29 254.842ZM1856.99 258.245C1856.99 256.255 1855.85 255.26 1853.59 255.26C1853.21 255.26 1852.79 255.326 1852.3 255.456L1851.63 258.915C1850.91 258.915 1850.37 258.887 1850.02 258.831C1849.7 257.901 1849.54 256.795 1849.54 255.511C1849.93 255.065 1850.57 254.647 1851.47 254.256C1852.38 253.847 1853.17 253.643 1853.84 253.643C1855.49 253.643 1856.85 254.061 1857.91 254.898C1858.99 255.716 1859.53 256.702 1859.53 257.855C1859.53 259.863 1858.34 261.379 1855.96 262.402C1857.09 262.402 1858.1 262.755 1858.97 263.462C1859.86 264.168 1860.31 265.182 1860.31 266.502C1860.31 267.822 1859.92 268.975 1859.14 269.961C1858.36 270.965 1857.44 271.691 1856.4 272.137C1855.38 272.602 1854.25 272.834 1853 272.834C1851.77 272.834 1850.48 272.602 1849.12 272.137C1849.16 271.43 1849.27 270.937 1849.46 270.658C1849.51 270.658 1849.69 270.696 1849.99 270.77C1850.28 270.844 1850.55 270.9 1850.77 270.937C1851.4 271.049 1851.95 271.105 1852.41 271.105C1852.88 271.105 1853.2 271.095 1853.39 271.077C1853.6 271.058 1853.9 271.012 1854.31 270.937C1854.74 270.863 1855.13 270.733 1855.48 270.547C1855.85 270.361 1856.22 270.138 1856.57 269.877C1857.35 269.264 1857.74 268.38 1857.74 267.227C1857.74 266.056 1857.38 265.182 1856.65 264.605C1855.95 264.029 1854.98 263.74 1853.75 263.74C1853.46 263.74 1852.91 263.778 1852.11 263.852C1852.03 263.759 1852 263.545 1852 263.21C1852 262.857 1852.02 262.522 1852.08 262.206L1853.31 262.039C1854.31 261.909 1855.18 261.5 1855.9 260.812C1856.63 260.105 1856.99 259.249 1856.99 258.245Z" fill="black"/>
<path d="M1973.95 254.842C1973.95 254.842 1973.84 258.943 1973.61 267.144L1976.12 267.367C1976.12 267.888 1975.97 268.445 1975.65 269.041H1968.31L1968.26 268.092C1968.89 267.906 1970 267.674 1971.58 267.395C1971.54 266.167 1971.49 264.336 1971.44 261.899C1971.38 259.445 1971.33 257.604 1971.3 256.376C1969.79 257.064 1968.74 257.436 1968.15 257.492C1967.83 256.971 1967.65 256.395 1967.62 255.763L1973.05 253.921C1973.61 254.331 1973.91 254.637 1973.95 254.842ZM1986.15 266.279L1985.87 256.181L1979.76 266.335C1982.59 266.298 1984.72 266.279 1986.15 266.279ZM1988.52 253.977L1988.24 266.279C1988.93 266.279 1989.94 266.298 1991.28 266.335C1991.28 267.116 1991.19 267.683 1991 268.036H1988.21L1988.02 272.695C1987.74 272.751 1987.46 272.778 1987.18 272.778C1986.9 272.778 1986.64 272.741 1986.4 272.667L1986.18 268.036H1977.72C1977.5 267.72 1977.39 267.395 1977.39 267.06C1977.39 266.707 1977.4 266.521 1977.42 266.502L1984.84 253.977H1988.52Z" fill="black"/>
<path d="M2103.05 254.842C2103.05 254.842 2102.94 258.943 2102.72 267.144L2105.23 267.367C2105.23 267.888 2105.07 268.445 2104.75 269.041H2097.42L2097.36 268.092C2097.99 267.906 2099.1 267.674 2100.68 267.395C2100.64 266.167 2100.6 264.336 2100.54 261.899C2100.49 259.445 2100.44 257.604 2100.4 256.376C2098.9 257.064 2097.85 257.436 2097.25 257.492C2096.93 256.971 2096.76 256.395 2096.72 255.763L2102.16 253.921C2102.72 254.331 2103.01 254.637 2103.05 254.842ZM2111.99 260.923C2113.83 260.923 2115.3 261.444 2116.4 262.485C2117.51 263.508 2118.07 264.921 2118.07 266.725C2118.07 268.511 2117.35 269.97 2115.92 271.105C2114.49 272.258 2112.88 272.834 2111.1 272.834C2109.33 272.834 2107.92 272.602 2106.88 272.137C2106.88 271.374 2107 270.882 2107.25 270.658C2108.06 270.956 2109.2 271.105 2110.65 271.105C2112.19 271.105 2113.38 270.77 2114.22 270.101C2114.57 269.803 2114.88 269.375 2115.14 268.817C2115.4 268.241 2115.53 267.571 2115.53 266.809C2115.53 265.507 2115.21 264.494 2114.58 263.768C2113.95 263.025 2113.05 262.653 2111.88 262.653C2110.98 262.653 2110.25 262.727 2109.67 262.876C2109.12 263.006 2108.81 263.071 2108.75 263.071C2108.36 262.848 2108.06 262.578 2107.83 262.262L2107.53 253.977H2117.01C2117.01 255.595 2116.9 256.99 2116.67 258.161C2116.36 258.236 2115.88 258.273 2115.22 258.273C2115.11 257.827 2115 256.953 2114.89 255.651H2110.04L2109.95 261.202C2110.51 261.016 2111.19 260.923 2111.99 260.923Z" fill="black"/>
<path d="M161.592 196.593V243.559" stroke="black" stroke-width="2"/>
<path d="M174.592 196.593V227.617" stroke="black"/>
<path d="M187.592 196.593V227.617" stroke="black"/>
<path d="M200.592 196.593V227.617" stroke="black"/>
<path d="M213.592 196.593V227.617" stroke="black"/>
<path d="M226.592 196.593V235.539" stroke="black" stroke-width="2"/>
<path d="M239.592 196.593V227.617" stroke="black"/>
<path d="M252.592 196.593V227.617" stroke="black"/>
<path d="M265.592 196.593V227.617" stroke="black"/>
<path d="M278.592 196.593V227.617" stroke="black"/>
<path d="M291.592 196.593V243.559" stroke="black" stroke-width="2"/>
<path d="M291.592 196.593V243.559" stroke="black" stroke-width="2"/>
<path d="M304.592 196.593V227.617" stroke="black"/>
<path d="M317.592 196.593V227.617" stroke="black"/>
<path d="M330.592 196.593V227.617" stroke="black"/>
<path d="M343.592 196.593V227.617" stroke="black"/>
<path d="M356.592 196.593V235.539" stroke="black" stroke-width="2"/>
<path d="M369.592 196.593V227.617" stroke="black"/>
<path d="M382.592 196.593V227.617" stroke="black"/>
<path d="M395.592 196.593V227.617" stroke="black"/>
<path d="M408.592 196.593V227.617" stroke="black"/>
<path d="M421.592 196.593V243.559" stroke="black" stroke-width="2"/>
<path d="M421.592 196.593V243.559" stroke="black" stroke-width="2"/>
<path d="M434.592 196.593V227.617" stroke="black"/>
<path d="M447.592 196.593V227.617" stroke="black"/>
<path d="M460.592 196.593V227.617" stroke="black"/>
<path d="M473.592 196.593V227.617" stroke="black"/>
<path d="M486.592 196.593V235.539" stroke="black" stroke-width="2"/>
<path d="M499.592 196.593V227.617" stroke="black"/>
<path d="M512.592 196.593V227.617" stroke="black"/>
<path d="M525.592 196.593V227.617" stroke="black"/>
<path d="M538.592 196.593V227.617" stroke="black"/>
<path d="M551.592 196.593V243.559" stroke="black" stroke-width="2"/>
<path d="M551.592 196.593V243.559" stroke="black" stroke-width="2"/>
<path d="M564.592 196.593V227.617" stroke="black"/>
<path d="M577.592 196.593V227.617" stroke="black"/>
<path d="M590.592 196.593V227.617" stroke="black"/>
<path d="M603.592 196.593V227.617" stroke="black"/>
<path d="M616.592 196.593V235.539" stroke="black" stroke-width="2"/>
<path d="M629.592 196.593V227.617" stroke="black"/>
<path d="M642.592 196.593V227.617" stroke="black"/>
<path d="M655.592 196.593V227.617" stroke="black"/>
<path d="M668.592 196.593V227.617" stroke="black"/>
<path d="M681.592 196.593V243.559" stroke="black" stroke-width="2"/>
<path d="M681.592 196.593V243.559" stroke="black" stroke-width="2"/>
<path d="M694.592 196.593V227.617" stroke="black"/>
<path d="M707.592 196.593V227.617" stroke="black"/>
<path d="M720.592 196.593V227.617" stroke="black"/>
<path d="M733.592 196.593V227.617" stroke="black"/>
<path d="M746.592 196.593V235.539" stroke="black" stroke-width="2"/>
<path d="M759.592 196.593V227.617" stroke="black"/>
<path d="M772.592 196.593V227.617" stroke="black"/>
<path d="M785.592 196.593V227.617" stroke="black"/>
<path d="M798.592 196.593V227.617" stroke="black"/>
<path d="M811.592 196.593V243.559" stroke="black" stroke-width="2"/>
<path d="M811.592 196.593V243.559" stroke="black" stroke-width="2"/>
<path d="M824.592 196.593V227.617" stroke="black"/>
<path d="M837.592 196.593V227.617" stroke="black"/>
<path d="M850.592 196.593V227.617" stroke="black"/>
<path d="M863.592 196.593V227.617" stroke="black"/>
<path d="M876.592 196.593V235.539" stroke="black" stroke-width="2"/>
<path d="M889.592 196.593V227.617" stroke="black"/>
<path d="M902.592 196.593V227.617" stroke="black"/>
<path d="M915.592 196.593V227.617" stroke="black"/>
<path d="M928.592 196.593V227.617" stroke="black"/>
<path d="M941.592 196.593V243.559" stroke="black" stroke-width="2"/>
<path d="M941.592 196.593V243.559" stroke="black" stroke-width="2"/>
<path d="M954.592 196.593V227.617" stroke="black"/>
<path d="M967.592 196.593V227.617" stroke="black"/>
<path d="M980.592 196.593V227.617" stroke="black"/>
<path d="M993.592 196.593V227.617" stroke="black"/>
<path d="M1006.59 196.593V235.539" stroke="black" stroke-width="2"/>
<path d="M1019.59 196.593V227.617" stroke="black"/>
<path d="M1032.59 196.593V227.617" stroke="black"/>
<path d="M1045.59 196.593V227.617" stroke="black"/>
<path d="M1058.59 196.593V227.617" stroke="black"/>
<path d="M1071.59 196.593V243.559" stroke="black" stroke-width="2"/>
<path d="M1071.59 196.593V243.559" stroke="black" stroke-width="2"/>
<path d="M1084.59 196.593V227.617" stroke="black"/>
<path d="M1097.59 196.593V227.617" stroke="black"/>
<path d="M1110.59 196.593V227.617" stroke="black"/>
<path d="M1123.59 196.593V227.617" stroke="black"/>
<path d="M1136.59 196.593V235.539" stroke="black" stroke-width="2"/>
<path d="M1149.59 196.593V227.617" stroke="black"/>
<path d="M1162.59 196.593V227.617" stroke="black"/>
<path d="M1175.59 196.593V227.617" stroke="black"/>
<path d="M1188.59 196.593V227.617" stroke="black"/>
<path d="M1201.59 196.593V243.559" stroke="black" stroke-width="2"/>
<path d="M1201.59 196.593V243.559" stroke="black" stroke-width="2"/>
<path d="M1214.59 196.593V227.617" stroke="black"/>
<path d="M1227.59 196.593V227.617" stroke="black"/>
<path d="M1240.59 196.593V227.617" stroke="black"/>
<path d="M1253.59 196.593V227.617" stroke="black"/>
<path d="M1266.59 196.593V235.539" stroke="black" stroke-width="2"/>
<path d="M1279.59 196.593V227.617" stroke="black"/>
<path d="M1292.59 196.593V227.617" stroke="black"/>
<path d="M1305.59 196.593V227.617" stroke="black"/>
<path d="M1318.59 196.593V227.617" stroke="black"/>
<path d="M1331.59 196.593V243.559" stroke="black" stroke-width="2"/>
<path d="M1331.59 196.593V243.559" stroke="black" stroke-width="2"/>
<path d="M1344.59 196.593V227.617" stroke="black"/>
<path d="M1357.59 196.593V227.617" stroke="black"/>
<path d="M1370.59 196.593V227.617" stroke="black"/>
<path d="M1383.59 196.593V227.617" stroke="black"/>
<path d="M1396.59 196.593V235.539" stroke="black" stroke-width="2"/>
<path d="M1409.59 196.593V227.617" stroke="black"/>
<path d="M1422.59 196.593V227.617" stroke="black"/>
<path d="M1435.59 196.593V227.617" stroke="black"/>
<path d="M1448.59 196.593V227.617" stroke="black"/>
<path d="M1461.59 196.593V243.559" stroke="black" stroke-width="2"/>
<path d="M1461.59 196.593V243.559" stroke="black" stroke-width="2"/>
<path d="M1474.59 196.593V227.617" stroke="black"/>
<path d="M1487.59 196.593V227.617" stroke="black"/>
<path d="M1500.59 196.593V227.617" stroke="black"/>
<path d="M1513.59 196.593V227.617" stroke="black"/>
<path d="M1526.59 196.593V235.539" stroke="black" stroke-width="2"/>
<path d="M1539.59 196.593V227.617" stroke="black"/>
<path d="M1552.59 196.593V227.617" stroke="black"/>
<path d="M1565.59 196.593V227.617" stroke="black"/>
<path d="M1578.59 196.593V227.617" stroke="black"/>
<path d="M1591.59 196.593V243.559" stroke="black" stroke-width="2"/>
<path d="M1591.59 196.593V243.559" stroke="black" stroke-width="2"/>
<path d="M1604.59 196.593V227.617" stroke="black"/>
<path d="M1617.59 196.593V227.617" stroke="black"/>
<path d="M1630.59 196.593V227.617" stroke="black"/>
<path d="M1643.59 196.593V227.617" stroke="black"/>
<path d="M1656.59 196.593V235.539" stroke="black" stroke-width="2"/>
<path d="M1669.59 196.593V227.617" stroke="black"/>
<path d="M1682.59 196.593V227.617" stroke="black"/>
<path d="M1695.59 196.593V227.617" stroke="black"/>
<path d="M1708.59 196.593V227.617" stroke="black"/>
<path d="M1721.59 196.593V243.559" stroke="black" stroke-width="2"/>
<path d="M1721.59 196.593V243.559" stroke="black" stroke-width="2"/>
<path d="M1734.59 196.593V227.617" stroke="black"/>
<path d="M1747.59 196.593V227.617" stroke="black"/>
<path d="M1760.59 196.593V227.617" stroke="black"/>
<path d="M1773.59 196.593V227.617" stroke="black"/>
<path d="M1786.59 196.593V235.539" stroke="black" stroke-width="2"/>
<path d="M1799.59 196.593V227.617" stroke="black"/>
<path d="M1812.59 196.593V227.617" stroke="black"/>
<path d="M1825.59 196.593V227.617" stroke="black"/>
<path d="M1838.59 196.593V227.617" stroke="black"/>
<path d="M1851.59 196.593V243.559" stroke="black" stroke-width="2"/>
<path d="M1851.59 196.593V243.559" stroke="black" stroke-width="2"/>
<path d="M1864.59 196.593V227.617" stroke="black"/>
<path d="M1877.59 196.593V227.617" stroke="black"/>
<path d="M1890.59 196.593V227.617" stroke="black"/>
<path d="M1903.59 196.593V227.617" stroke="black"/>
<path d="M1916.59 196.593V235.539" stroke="black" stroke-width="2"/>
<path d="M1929.59 196.593V227.617" stroke="black"/>
<path d="M1942.59 196.593V227.617" stroke="black"/>
<path d="M1955.59 196.593V227.617" stroke="black"/>
<path d="M1968.59 196.593V227.617" stroke="black"/>
<path d="M1981.59 196.593V243.559" stroke="black" stroke-width="2"/>
<path d="M1981.59 196.593V243.559" stroke="black" stroke-width="2"/>
<path d="M1994.59 196.593V227.617" stroke="black"/>
<path d="M2007.59 196.593V227.617" stroke="black"/>
<path d="M2020.59 196.593V227.617" stroke="black"/>
<path d="M2033.59 196.593V227.617" stroke="black"/>
<path d="M2046.59 196.593V235.539" stroke="black" stroke-width="2"/>
<path d="M2059.59 196.593V227.617" stroke="black"/>
<path d="M2072.59 196.593V227.617" stroke="black"/>
<path d="M2085.59 196.593V227.617" stroke="black"/>
<path d="M2098.59 196.593V227.617" stroke="black"/>
<path d="M2111.59 196.593V243.559" stroke="black" stroke-width="2"/>
<path d="M2111.59 325.565L2111.59 278.599" stroke="black" stroke-width="2"/>
<path d="M2098.59 325.565L2098.59 294.541" stroke="black"/>
<path d="M2085.59 325.565L2085.59 294.541" stroke="black"/>
<path d="M2072.59 325.565L2072.59 294.541" stroke="black"/>
<path d="M2059.59 325.565L2059.59 294.541" stroke="black"/>
<path d="M2046.59 325.565L2046.59 286.619" stroke="black" stroke-width="2"/>
<path d="M2033.59 325.565L2033.59 294.541" stroke="black"/>
<path d="M2020.59 325.565L2020.59 294.541" stroke="black"/>
<path d="M2007.59 325.565L2007.59 294.541" stroke="black"/>
<path d="M1994.59 325.565L1994.59 294.541" stroke="black"/>
<path d="M1981.59 325.565L1981.59 278.599" stroke="black" stroke-width="2"/>
<path d="M1981.59 325.565L1981.59 278.599" stroke="black" stroke-width="2"/>
<path d="M1968.59 325.565L1968.59 294.541" stroke="black"/>
<path d="M1955.59 325.565L1955.59 294.541" stroke="black"/>
<path d="M1942.59 325.565L1942.59 294.541" stroke="black"/>
<path d="M1929.59 325.565L1929.59 294.541" stroke="black"/>
<path d="M1916.59 325.565L1916.59 286.619" stroke="black" stroke-width="2"/>
<path d="M1903.59 325.565L1903.59 294.541" stroke="black"/>
<path d="M1890.59 325.565L1890.59 294.541" stroke="black"/>
<path d="M1877.59 325.565L1877.59 294.541" stroke="black"/>
<path d="M1864.59 325.565L1864.59 294.541" stroke="black"/>
<path d="M1851.59 325.565L1851.59 278.599" stroke="black" stroke-width="2"/>
<path d="M1851.59 325.565L1851.59 278.599" stroke="black" stroke-width="2"/>
<path d="M1838.59 325.565L1838.59 294.541" stroke="black"/>
<path d="M1825.59 325.565L1825.59 294.541" stroke="black"/>
<path d="M1812.59 325.565L1812.59 294.541" stroke="black"/>
<path d="M1799.59 325.565L1799.59 294.541" stroke="black"/>
<path d="M1786.59 325.565L1786.59 286.619" stroke="black" stroke-width="2"/>
<path d="M1773.59 325.565L1773.59 294.541" stroke="black"/>
<path d="M1760.59 325.565L1760.59 294.541" stroke="black"/>
<path d="M1747.59 325.565L1747.59 294.541" stroke="black"/>
<path d="M1734.59 325.565L1734.59 294.541" stroke="black"/>
<path d="M1721.59 325.565L1721.59 278.599" stroke="black" stroke-width="2"/>
<path d="M1721.59 325.565L1721.59 278.599" stroke="black" stroke-width="2"/>
<path d="M1708.59 325.565L1708.59 294.541" stroke="black"/>
<path d="M1695.59 325.565L1695.59 294.541" stroke="black"/>
<path d="M1682.59 325.565L1682.59 294.541" stroke="black"/>
<path d="M1669.59 325.565L1669.59 294.541" stroke="black"/>
<path d="M1656.59 325.565L1656.59 286.619" stroke="black" stroke-width="2"/>
<path d="M1643.59 325.565L1643.59 294.541" stroke="black"/>
<path d="M1630.59 325.565L1630.59 294.541" stroke="black"/>
<path d="M1617.59 325.565L1617.59 294.541" stroke="black"/>
<path d="M1604.59 325.565L1604.59 294.541" stroke="black"/>
<path d="M1591.59 325.565L1591.59 278.599" stroke="black" stroke-width="2"/>
<path d="M1591.59 325.565L1591.59 278.599" stroke="black" stroke-width="2"/>
<path d="M1578.59 325.565L1578.59 294.541" stroke="black"/>
<path d="M1565.59 325.565L1565.59 294.541" stroke="black"/>
<path d="M1552.59 325.565L1552.59 294.541" stroke="black"/>
<path d="M1539.59 325.565L1539.59 294.541" stroke="black"/>
<path d="M1526.59 325.565L1526.59 286.619" stroke="black" stroke-width="2"/>
<path d="M1513.59 325.565L1513.59 294.541" stroke="black"/>
<path d="M1500.59 325.565L1500.59 294.541" stroke="black"/>
<path d="M1487.59 325.565L1487.59 294.541" stroke="black"/>
<path d="M1474.59 325.565L1474.59 294.541" stroke="black"/>
<path d="M1461.59 325.565L1461.59 278.599" stroke="black" stroke-width="2"/>
<path d="M1461.59 325.565L1461.59 278.599" stroke="black" stroke-width="2"/>
<path d="M1448.59 325.565L1448.59 294.541" stroke="black"/>
<path d="M1435.59 325.565L1435.59 294.541" stroke="black"/>
<path d="M1422.59 325.565L1422.59 294.541" stroke="black"/>
<path d="M1409.59 325.565L1409.59 294.541" stroke="black"/>
<path d="M1396.59 325.565L1396.59 286.619" stroke="black" stroke-width="2"/>
<path d="M1383.59 325.565L1383.59 294.541" stroke="black"/>
<path d="M1370.59 325.565L1370.59 294.541" stroke="black"/>
<path d="M1357.59 325.565L1357.59 294.541" stroke="black"/>
<path d="M1344.59 325.565L1344.59 294.541" stroke="black"/>
<path d="M1331.59 325.565L1331.59 278.599" stroke="black" stroke-width="2"/>
<path d="M1331.59 325.565L1331.59 278.599" stroke="black" stroke-width="2"/>
<path d="M1318.59 325.565L1318.59 294.541" stroke="black"/>
<path d="M1305.59 325.565L1305.59 294.541" stroke="black"/>
<path d="M1292.59 325.565L1292.59 294.541" stroke="black"/>
<path d="M1279.59 325.565L1279.59 294.541" stroke="black"/>
<path d="M1266.59 325.565L1266.59 286.619" stroke="black" stroke-width="2"/>
<path d="M1253.59 325.565L1253.59 294.541" stroke="black"/>
<path d="M1240.59 325.565L1240.59 294.541" stroke="black"/>
<path d="M1227.59 325.565L1227.59 294.541" stroke="black"/>
<path d="M1214.59 325.565L1214.59 294.541" stroke="black"/>
<path d="M1201.59 325.565L1201.59 278.599" stroke="black" stroke-width="2"/>
<path d="M1201.59 325.565L1201.59 278.599" stroke="black" stroke-width="2"/>
<path d="M1188.59 325.565L1188.59 294.541" stroke="black"/>
<path d="M1175.59 325.565L1175.59 294.541" stroke="black"/>
<path d="M1162.59 325.565L1162.59 294.541" stroke="black"/>
<path d="M1149.59 325.565L1149.59 294.541" stroke="black"/>
<path d="M1136.59 325.565L1136.59 286.619" stroke="black" stroke-width="2"/>
<path d="M1123.59 325.565L1123.59 294.541" stroke="black"/>
<path d="M1110.59 325.565L1110.59 294.541" stroke="black"/>
<path d="M1097.59 325.565L1097.59 294.541" stroke="black"/>
<path d="M1084.59 325.565L1084.59 294.541" stroke="black"/>
<path d="M1071.59 325.565L1071.59 278.599" stroke="black" stroke-width="2"/>
<path d="M1071.59 325.565L1071.59 278.599" stroke="black" stroke-width="2"/>
<path d="M1058.59 325.565L1058.59 294.541" stroke="black"/>
<path d="M1045.59 325.565L1045.59 294.541" stroke="black"/>
<path d="M1032.59 325.565L1032.59 294.541" stroke="black"/>
<path d="M1019.59 325.565L1019.59 294.541" stroke="black"/>
<path d="M1006.59 325.565L1006.59 286.619" stroke="black" stroke-width="2"/>
<path d="M993.592 325.565L993.592 294.541" stroke="black"/>
<path d="M980.592 325.565L980.592 294.541" stroke="black"/>
<path d="M967.592 325.565L967.592 294.541" stroke="black"/>
<path d="M954.592 325.565L954.592 294.541" stroke="black"/>
<path d="M941.592 325.565L941.592 278.599" stroke="black" stroke-width="2"/>
<path d="M941.592 325.565L941.592 278.599" stroke="black" stroke-width="2"/>
<path d="M928.592 325.565L928.592 294.541" stroke="black"/>
<path d="M915.592 325.565L915.592 294.541" stroke="black"/>
<path d="M902.592 325.565L902.592 294.541" stroke="black"/>
<path d="M889.592 325.565L889.592 294.541" stroke="black"/>
<path d="M876.592 325.565L876.592 286.619" stroke="black" stroke-width="2"/>
<path d="M863.592 325.565L863.592 294.541" stroke="black"/>
<path d="M850.592 325.565L850.592 294.541" stroke="black"/>
<path d="M837.592 325.565L837.592 294.541" stroke="black"/>
<path d="M824.592 325.565L824.592 294.541" stroke="black"/>
<path d="M811.592 325.565L811.592 278.599" stroke="black" stroke-width="2"/>
<path d="M811.592 325.565L811.592 278.599" stroke="black" stroke-width="2"/>
<path d="M798.592 325.565L798.592 294.541" stroke="black"/>
<path d="M785.592 325.565L785.592 294.541" stroke="black"/>
<path d="M772.592 325.565L772.592 294.541" stroke="black"/>
<path d="M759.592 325.565L759.592 294.541" stroke="black"/>
<path d="M746.592 325.565L746.592 286.619" stroke="black" stroke-width="2"/>
<path d="M733.592 325.565L733.592 294.541" stroke="black"/>
<path d="M720.592 325.565L720.592 294.541" stroke="black"/>
<path d="M707.592 325.565L707.592 294.541" stroke="black"/>
<path d="M694.592 325.565L694.592 294.541" stroke="black"/>
<path d="M681.592 325.565L681.592 278.599" stroke="black" stroke-width="2"/>
<path d="M681.592 325.565L681.592 278.599" stroke="black" stroke-width="2"/>
<path d="M668.592 325.565L668.592 294.541" stroke="black"/>
<path d="M655.592 325.565L655.592 294.541" stroke="black"/>
<path d="M642.592 325.565L642.592 294.541" stroke="black"/>
<path d="M629.592 325.565L629.592 294.541" stroke="black"/>
<path d="M616.592 325.565L616.592 286.619" stroke="black" stroke-width="2"/>
<path d="M603.592 325.565L603.592 294.541" stroke="black"/>
<path d="M590.592 325.565L590.592 294.541" stroke="black"/>
<path d="M577.592 325.565L577.592 294.541" stroke="black"/>
<path d="M564.592 325.565L564.592 294.541" stroke="black"/>
<path d="M551.592 325.565L551.592 278.599" stroke="black" stroke-width="2"/>
<path d="M551.592 325.565L551.592 278.599" stroke="black" stroke-width="2"/>
<path d="M538.592 325.565L538.592 294.541" stroke="black"/>
<path d="M525.592 325.565L525.592 294.541" stroke="black"/>
<path d="M512.592 325.565L512.592 294.541" stroke="black"/>
<path d="M499.592 325.565L499.592 294.541" stroke="black"/>
<path d="M486.592 325.565L486.592 286.619" stroke="black" stroke-width="2"/>
<path d="M473.592 325.565L473.592 294.541" stroke="black"/>
<path d="M460.592 325.565L460.592 294.541" stroke="black"/>
<path d="M447.592 325.565L447.592 294.541" stroke="black"/>
<path d="M434.592 325.565L434.592 294.541" stroke="black"/>
<path d="M421.592 325.565L421.592 278.599" stroke="black" stroke-width="2"/>
<path d="M421.592 325.565L421.592 278.599" stroke="black" stroke-width="2"/>
<path d="M408.592 325.565L408.592 294.541" stroke="black"/>
<path d="M395.592 325.565L395.592 294.541" stroke="black"/>
<path d="M382.592 325.565L382.592 294.541" stroke="black"/>
<path d="M369.592 325.565L369.592 294.541" stroke="black"/>
<path d="M356.592 325.565L356.592 286.619" stroke="black" stroke-width="2"/>
<path d="M343.592 325.565L343.592 294.541" stroke="black"/>
<path d="M330.592 325.565L330.592 294.541" stroke="black"/>
<path d="M317.592 325.565L317.592 294.541" stroke="black"/>
<path d="M304.592 325.565L304.592 294.541" stroke="black"/>
<path d="M291.592 325.565L291.592 278.599" stroke="black" stroke-width="2"/>
<path d="M291.592 325.565L291.592 278.599" stroke="black" stroke-width="2"/>
<path d="M278.592 325.565L278.592 294.541" stroke="black"/>
<path d="M265.592 325.565L265.592 294.541" stroke="black"/>
<path d="M252.592 325.565L252.592 294.541" stroke="black"/>
<path d="M239.592 325.565L239.592 294.541" stroke="black"/>
<path d="M226.592 325.565L226.592 286.619" stroke="black" stroke-width="2"/>
<path d="M213.592 325.565L213.592 294.541" stroke="black"/>
<path d="M200.592 325.565L200.592 294.541" stroke="black"/>
<path d="M187.592 325.565L187.592 294.541" stroke="black"/>
<path d="M174.592 325.565L174.592 294.541" stroke="black"/>
<path d="M161.592 325.565L161.592 278.599" stroke="black" stroke-width="2"/>
<path d="M142.756 609.464H102.101V710.951" stroke="black"/>
<path d="M84.2424 83.4048H101.002V20.391" stroke="black"/>
</g>
<defs>
<clipPath id="clip0_34_1014">
<rect width="2324.64" height="734.208" fill="white" transform="translate(0.413086 0.663574)"/>
</clipPath>
</defs>
</svg>
