<svg width="3394" height="1072" viewBox="0 0 3394 1072" fill="none" xmlns="http://www.w3.org/2000/svg">
<g clip-path="url(#clip0_37_1472)">
<path d="M0.438529 459.823C0.438485 361.015 0.43843 233.448 0.438546 217.598C0.438552 216.792 1.09197 216.157 1.898 216.157L120.485 216.157C121.291 216.157 121.944 215.503 121.944 214.697V3.46061C121.944 2.17006 123.496 1.51458 124.421 2.41444L165.033 41.9185C165.177 42.0587 165.291 42.2272 165.367 42.4134L236.151 215.891C236.222 216.066 236.259 216.254 236.259 216.443V263.592C236.259 264.398 236.913 265.051 237.719 265.051H3391.74C3392.55 265.051 3393.2 265.704 3393.2 266.51V491.628C3393.2 492.434 3392.55 493.087 3391.74 493.087H208.399C207.593 493.087 206.94 493.741 206.94 494.547V1069.39C206.94 1070.43 205.919 1071.14 204.969 1070.72C193.51 1065.72 135.181 1038.71 111.894 997.717C86.014 952.152 0.438563 631.722 0.438563 558.73L0.438529 459.823Z" fill="#9BE1FF" stroke="black" stroke-width="2.91896"/>
<path d="M240.47 363.295C243.7 363.295 246.075 364.3 247.595 366.308C249.142 368.289 249.915 371.058 249.915 374.613C249.915 378.142 249.142 380.978 247.595 383.122C246.075 385.266 243.686 386.338 240.429 386.338C237.172 386.338 234.811 385.388 233.345 383.488C231.907 381.561 231.188 378.684 231.188 374.858C231.188 367.149 234.282 363.295 240.47 363.295ZM235.584 380.964C235.937 381.941 236.521 382.674 237.335 383.163C238.149 383.624 239.126 383.855 240.266 383.855C241.433 383.855 242.383 383.678 243.116 383.326C243.849 382.973 244.405 382.552 244.785 382.064C245.193 381.575 245.491 380.896 245.681 380.028C246.007 378.671 246.17 376.934 246.17 374.817C246.17 368.819 244.27 365.819 240.47 365.819C239.439 365.819 238.543 366.009 237.783 366.389C237.05 366.769 236.494 367.231 236.114 367.774C235.734 368.316 235.435 369.009 235.218 369.85C234.892 371.153 234.73 372.618 234.73 374.247C234.73 375.875 234.784 377.165 234.892 378.114C235.001 379.037 235.232 379.987 235.584 380.964Z" fill="black"/>
<path d="M427.974 365.087C427.974 365.087 427.811 371.071 427.485 383.041L431.149 383.366C431.149 384.126 430.919 384.941 430.457 385.809H419.75L419.669 384.425C420.591 384.153 422.206 383.814 424.513 383.407C424.459 381.616 424.391 378.942 424.31 375.387C424.228 371.804 424.161 369.117 424.106 367.326C421.908 368.33 420.374 368.873 419.506 368.954C419.044 368.194 418.787 367.353 418.732 366.43L426.671 363.743C427.485 364.34 427.92 364.788 427.974 365.087Z" fill="black"/>
<path d="M620.025 379.539C620.215 379.512 620.445 379.499 620.717 379.499C621.205 379.499 621.68 379.567 622.142 379.702C622.467 381.331 622.63 383.366 622.63 385.809H608.381C608.055 385.239 607.892 384.737 607.892 384.303C607.892 383.841 607.906 383.556 607.933 383.448C613.551 378.101 616.578 375.197 617.012 374.735C617.446 374.247 617.88 373.528 618.315 372.578C618.776 371.628 619.007 370.678 619.007 369.728C619.007 368.751 618.627 367.855 617.867 367.041C617.134 366.227 616.008 365.819 614.488 365.819C613.646 365.819 612.927 365.901 612.33 366.064L611.353 371.071C611.082 371.098 610.783 371.112 610.457 371.112C610.132 371.112 609.643 371.058 608.992 370.949C608.557 369.782 608.327 368.167 608.3 366.104C608.978 365.453 609.942 364.842 611.19 364.272C612.466 363.675 613.674 363.377 614.813 363.377C617.202 363.377 619.115 363.987 620.554 365.209C622.019 366.403 622.752 367.719 622.752 369.158C622.752 371.003 622.359 372.605 621.572 373.962C620.812 375.319 619.536 376.757 617.745 378.277L612.289 382.919L612.411 383.407L619.536 383.366C619.672 381.521 619.835 380.245 620.025 379.539Z" fill="black"/>
<path d="M804.268 370.054C804.268 367.149 802.613 365.697 799.301 365.697C798.759 365.697 798.134 365.792 797.429 365.982L796.451 371.031C795.393 371.031 794.606 370.99 794.09 370.908C793.629 369.551 793.398 367.936 793.398 366.064C793.968 365.412 794.904 364.802 796.207 364.232C797.537 363.635 798.691 363.336 799.668 363.336C802.083 363.336 804.065 363.947 805.612 365.168C807.186 366.362 807.973 367.801 807.973 369.484C807.973 372.415 806.236 374.627 802.762 376.12C804.417 376.12 805.883 376.635 807.159 377.667C808.462 378.698 809.113 380.177 809.113 382.104C809.113 384.031 808.543 385.714 807.403 387.153C806.263 388.618 804.933 389.677 803.413 390.328C801.92 391.007 800.265 391.346 798.446 391.346C796.655 391.346 794.769 391.007 792.787 390.328C792.842 389.297 793.005 388.578 793.276 388.17C793.357 388.17 793.615 388.225 794.049 388.333C794.484 388.442 794.864 388.523 795.189 388.578C796.112 388.74 796.913 388.822 797.591 388.822C798.27 388.822 798.745 388.808 799.016 388.781C799.315 388.754 799.763 388.686 800.36 388.578C800.984 388.469 801.554 388.279 802.07 388.008C802.613 387.736 803.142 387.41 803.658 387.03C804.797 386.135 805.367 384.846 805.367 383.163C805.367 381.453 804.838 380.177 803.78 379.336C802.748 378.494 801.337 378.074 799.546 378.074C799.111 378.074 798.311 378.128 797.144 378.237C797.035 378.101 796.981 377.789 796.981 377.3C796.981 376.785 797.021 376.296 797.103 375.835L798.894 375.59C800.36 375.4 801.622 374.803 802.68 373.799C803.739 372.768 804.268 371.519 804.268 370.054Z" fill="black"/>
<path d="M988.331 381.779L987.924 367.041L979.008 381.86C983.133 381.806 986.241 381.779 988.331 381.779ZM991.791 363.825L991.384 381.779C992.388 381.779 993.868 381.806 995.822 381.86C995.822 383 995.686 383.828 995.415 384.343H991.343L991.058 391.142C990.651 391.224 990.244 391.265 989.837 391.265C989.43 391.265 989.05 391.21 988.697 391.102L988.371 384.343H976.036C975.71 383.882 975.547 383.407 975.547 382.919C975.547 382.403 975.561 382.131 975.588 382.104L986.417 363.825H991.791Z" fill="black"/>
<path d="M1183.81 373.962C1186.5 373.962 1188.64 374.722 1190.24 376.242C1191.87 377.735 1192.68 379.797 1192.68 382.43C1192.68 385.036 1191.64 387.166 1189.55 388.822C1187.46 390.505 1185.11 391.346 1182.51 391.346C1179.93 391.346 1177.88 391.007 1176.36 390.328C1176.36 389.215 1176.53 388.496 1176.89 388.17C1178.08 388.605 1179.74 388.822 1181.85 388.822C1184.11 388.822 1185.84 388.333 1187.07 387.356C1187.58 386.922 1188.03 386.298 1188.41 385.483C1188.79 384.642 1188.98 383.665 1188.98 382.552C1188.98 380.652 1188.52 379.173 1187.59 378.114C1186.67 377.029 1185.36 376.486 1183.65 376.486C1182.34 376.486 1181.27 376.595 1180.43 376.812C1179.61 377.002 1179.17 377.097 1179.09 377.097C1178.52 376.771 1178.07 376.377 1177.74 375.916L1177.29 363.825H1191.14C1191.14 366.186 1190.97 368.221 1190.65 369.931C1190.19 370.04 1189.48 370.094 1188.53 370.094C1188.37 369.443 1188.21 368.167 1188.04 366.267H1180.96L1180.84 374.369C1181.65 374.098 1182.64 373.962 1183.81 373.962Z" fill="black"/>
<path d="M1366.65 372.822C1366.63 373.039 1366.61 373.541 1366.61 374.328C1366.61 375.115 1366.69 376.011 1366.86 377.015C1367.02 378.02 1367.3 379.078 1367.71 380.191C1368.12 381.276 1368.76 382.159 1369.62 382.837C1370.49 383.516 1371.52 383.855 1372.72 383.855C1374.62 383.855 1376 383.217 1376.87 381.941C1377.74 380.666 1378.17 378.983 1378.17 376.893C1378.17 374.803 1377.81 373.229 1377.08 372.171C1376.37 371.085 1375 370.542 1372.96 370.542C1370.93 370.542 1368.82 371.302 1366.65 372.822ZM1373.17 368.018C1375.88 368.018 1378.01 368.791 1379.56 370.338C1381.13 371.858 1381.92 374.138 1381.92 377.178C1381.92 380.191 1381.05 382.471 1379.31 384.018C1377.6 385.565 1375.37 386.338 1372.6 386.338C1369.91 386.338 1367.64 385.293 1365.8 383.204C1364.85 382.145 1364.1 380.652 1363.56 378.725C1363.02 376.771 1362.74 374.627 1362.74 372.293C1362.74 369.959 1363.04 367.923 1363.64 366.186C1364.24 364.449 1365.02 362.997 1366 361.83C1367.01 360.635 1368.16 359.618 1369.46 358.776C1371.93 357.148 1374.63 356.334 1377.56 356.334C1377.89 356.659 1378.05 357.378 1378.05 358.491C1374.42 358.763 1371.65 359.916 1369.75 361.952C1367.87 363.96 1366.79 366.851 1366.49 370.623C1367.25 369.918 1368.32 369.307 1369.71 368.791C1371.09 368.276 1372.24 368.018 1373.17 368.018Z" fill="black"/>
<path d="M1553.44 365.697C1553.44 365.046 1553.48 364.408 1553.56 363.784L1568.79 363.825C1569.33 364.367 1569.6 365.1 1569.6 366.023C1567.84 371.424 1566.17 376.364 1564.59 380.842C1563.02 385.293 1561.77 388.835 1560.85 391.468C1559.81 391.332 1559.08 391.075 1558.65 390.695L1565.94 366.267H1557.55L1556.53 371.234C1555.47 371.234 1554.69 371.18 1554.17 371.071C1553.68 369.497 1553.44 367.706 1553.44 365.697Z" fill="black"/>
<path d="M1756.5 382.29C1756.5 384.678 1755.76 386.673 1754.3 388.275C1752.83 389.876 1750.61 390.677 1747.62 390.677C1745.48 390.677 1743.5 390.107 1741.68 388.967C1740.76 388.397 1740 387.555 1739.4 386.442C1738.83 385.33 1738.54 384.027 1738.54 382.534C1738.54 379.359 1740.36 376.536 1744 374.066L1743.88 373.985C1742.17 373.17 1740.96 372.261 1740.25 371.257C1739.55 370.225 1739.19 368.678 1739.19 366.616C1739.19 364.526 1739.94 362.843 1741.43 361.567C1742.95 360.292 1745.03 359.654 1747.66 359.654C1750.32 359.654 1752.39 360.319 1753.85 361.649C1755.34 362.952 1756.09 364.634 1756.09 366.697C1756.09 368.733 1755.64 370.32 1754.75 371.46C1753.85 372.573 1752.52 373.632 1750.76 374.636C1754.58 376.943 1756.5 379.494 1756.5 382.29ZM1751.41 387.582C1752.3 385.845 1752.75 384.163 1752.75 382.534C1752.75 380.906 1752.26 379.589 1751.29 378.585C1750.34 377.554 1748.63 376.4 1746.16 375.125C1744.88 376.074 1743.92 377.106 1743.27 378.219C1742.61 379.331 1742.29 380.621 1742.29 382.086C1742.29 383.552 1742.47 384.692 1742.82 385.506C1743.17 386.293 1743.63 386.877 1744.2 387.257C1745.29 387.962 1746.33 388.315 1747.34 388.315C1749.07 388.315 1750.31 388.125 1751.04 387.745L1751.41 387.582ZM1752.34 366.534C1752.34 363.603 1750.77 362.137 1747.62 362.137C1746.21 362.137 1744.99 362.354 1743.96 362.789C1743.28 364.01 1742.94 365.272 1742.94 366.575C1742.94 369.506 1744.41 371.61 1747.34 372.885C1747.5 372.94 1747.95 373.157 1748.68 373.537C1751.12 372.017 1752.34 369.683 1752.34 366.534Z" fill="black"/>
<path d="M1938.55 365.657C1934.86 365.657 1933.01 367.977 1933.01 372.618C1933.01 374.545 1933.54 376.025 1934.6 377.056C1935.66 378.06 1937.08 378.562 1938.87 378.562C1939.39 378.562 1940.18 378.332 1941.24 377.87C1942.32 377.409 1943.11 377.015 1943.6 376.69C1943.76 375.767 1943.84 374.776 1943.84 373.718C1943.84 372.632 1943.76 371.682 1943.6 370.868C1943.43 370.026 1943.18 369.199 1942.82 368.384C1942.47 367.543 1941.93 366.878 1941.2 366.389C1940.46 365.901 1939.58 365.657 1938.55 365.657ZM1938.14 380.964C1935.46 380.964 1933.31 380.137 1931.71 378.481C1930.11 376.825 1929.31 374.722 1929.31 372.171C1929.31 369.619 1930.11 367.502 1931.71 365.819C1933.34 364.137 1935.6 363.295 1938.51 363.295C1941.44 363.295 1943.67 364.245 1945.19 366.145C1946.71 368.045 1947.47 370.691 1947.47 374.084C1947.47 379.078 1946.3 383.176 1943.96 386.379C1942.8 387.98 1941.24 389.215 1939.28 390.084C1937.33 390.98 1935.05 391.427 1932.44 391.427C1932.25 391.183 1932.16 390.79 1932.16 390.247L1932.2 389.636C1935.73 389.365 1938.3 388.388 1939.93 386.705C1941.56 385.022 1942.65 382.498 1943.19 379.132C1942.54 379.675 1941.71 380.123 1940.71 380.476C1939.73 380.801 1938.87 380.964 1938.14 380.964Z" fill="black"/>
<path d="M2124.42 365.087C2124.42 365.087 2124.25 371.071 2123.93 383.041L2127.59 383.366C2127.59 384.126 2127.36 384.941 2126.9 385.809H2116.19L2116.11 384.425C2117.03 384.153 2118.65 383.814 2120.95 383.407C2120.9 381.616 2120.83 378.942 2120.75 375.387C2120.67 371.804 2120.6 369.117 2120.55 367.326C2118.35 368.33 2116.82 368.873 2115.95 368.954C2115.49 368.194 2115.23 367.353 2115.17 366.43L2123.11 363.743C2123.93 364.34 2124.36 364.788 2124.42 365.087ZM2139.9 363.295C2143.13 363.295 2145.5 364.3 2147.02 366.308C2148.57 368.289 2149.35 371.058 2149.35 374.613C2149.35 378.142 2148.57 380.978 2147.02 383.122C2145.5 385.266 2143.12 386.338 2139.86 386.338C2136.6 386.338 2134.24 385.388 2132.78 383.488C2131.34 381.561 2130.62 378.684 2130.62 374.858C2130.62 367.149 2133.71 363.295 2139.9 363.295ZM2135.01 380.964C2135.37 381.941 2135.95 382.674 2136.77 383.163C2137.58 383.624 2138.56 383.855 2139.7 383.855C2140.86 383.855 2141.81 383.678 2142.55 383.326C2143.28 382.973 2143.84 382.552 2144.22 382.064C2144.62 381.575 2144.92 380.896 2145.11 380.028C2145.44 378.671 2145.6 376.934 2145.6 374.817C2145.6 368.819 2143.7 365.819 2139.9 365.819C2138.87 365.819 2137.97 366.009 2137.21 366.389C2136.48 366.769 2135.92 367.231 2135.54 367.774C2135.16 368.316 2134.87 369.009 2134.65 369.85C2134.32 371.153 2134.16 372.618 2134.16 374.247C2134.16 375.875 2134.21 377.165 2134.32 378.114C2134.43 379.037 2134.66 379.987 2135.01 380.964Z" fill="black"/>
<path d="M2314.07 365.087C2314.07 365.087 2313.91 371.071 2313.58 383.041L2317.24 383.366C2317.24 384.126 2317.01 384.941 2316.55 385.809H2305.85L2305.76 384.425C2306.69 384.153 2308.3 383.814 2310.61 383.407C2310.55 381.616 2310.49 378.942 2310.41 375.387C2310.32 371.804 2310.26 369.117 2310.2 367.326C2308 368.33 2306.47 368.873 2305.6 368.954C2305.14 368.194 2304.88 367.353 2304.83 366.43L2312.77 363.743C2313.58 364.34 2314.01 364.788 2314.07 365.087ZM2328.74 365.087C2328.74 365.087 2328.58 371.071 2328.25 383.041L2331.92 383.366C2331.92 384.126 2331.68 384.941 2331.22 385.809H2320.52L2320.43 384.425C2321.36 384.153 2322.97 383.814 2325.28 383.407C2325.23 381.616 2325.16 378.942 2325.08 375.387C2324.99 371.804 2324.93 369.117 2324.87 367.326C2322.67 368.33 2321.14 368.873 2320.27 368.954C2319.81 368.194 2319.55 367.353 2319.5 366.43L2327.44 363.743C2328.25 364.34 2328.69 364.788 2328.74 365.087Z" fill="black"/>
<path d="M2503.67 365.087C2503.67 365.087 2503.51 371.071 2503.18 383.041L2506.84 383.366C2506.84 384.126 2506.61 384.941 2506.15 385.809H2495.45L2495.36 384.425C2496.29 384.153 2497.9 383.814 2500.21 383.407C2500.15 381.616 2500.09 378.942 2500 375.387C2499.92 371.804 2499.86 369.117 2499.8 367.326C2497.6 368.33 2496.07 368.873 2495.2 368.954C2494.74 368.194 2494.48 367.353 2494.43 366.43L2502.37 363.743C2503.18 364.34 2503.61 364.788 2503.67 365.087ZM2522.04 379.539C2522.23 379.512 2522.47 379.499 2522.74 379.499C2523.23 379.499 2523.7 379.567 2524.16 379.702C2524.49 381.331 2524.65 383.366 2524.65 385.809H2510.4C2510.08 385.239 2509.91 384.737 2509.91 384.303C2509.91 383.841 2509.93 383.556 2509.95 383.448C2515.57 378.101 2518.6 375.197 2519.03 374.735C2519.47 374.247 2519.9 373.528 2520.33 372.578C2520.8 371.628 2521.03 370.678 2521.03 369.728C2521.03 368.751 2520.65 367.855 2519.89 367.041C2519.15 366.227 2518.03 365.819 2516.51 365.819C2515.67 365.819 2514.95 365.901 2514.35 366.064L2513.37 371.071C2513.1 371.098 2512.8 371.112 2512.48 371.112C2512.15 371.112 2511.66 371.058 2511.01 370.949C2510.58 369.782 2510.35 368.167 2510.32 366.104C2511 365.453 2511.96 364.842 2513.21 364.272C2514.49 363.675 2515.69 363.377 2516.83 363.377C2519.22 363.377 2521.14 363.987 2522.57 365.209C2524.04 366.403 2524.77 367.719 2524.77 369.158C2524.77 371.003 2524.38 372.605 2523.59 373.962C2522.83 375.319 2521.56 376.757 2519.76 378.277L2514.31 382.919L2514.43 383.407L2521.56 383.366C2521.69 381.521 2521.85 380.245 2522.04 379.539Z" fill="black"/>
<path d="M2687.46 365.087C2687.46 365.087 2687.3 371.071 2686.97 383.041L2690.64 383.366C2690.64 384.126 2690.41 384.941 2689.95 385.809H2679.24L2679.16 384.425C2680.08 384.153 2681.69 383.814 2684 383.407C2683.95 381.616 2683.88 378.942 2683.8 375.387C2683.72 371.804 2683.65 369.117 2683.59 367.326C2681.4 368.33 2679.86 368.873 2678.99 368.954C2678.53 368.194 2678.28 367.353 2678.22 366.43L2686.16 363.743C2686.97 364.34 2687.41 364.788 2687.46 365.087ZM2704.54 370.054C2704.54 367.149 2702.88 365.697 2699.57 365.697C2699.03 365.697 2698.4 365.792 2697.7 365.982L2696.72 371.031C2695.66 371.031 2694.87 370.99 2694.36 370.908C2693.9 369.551 2693.67 367.936 2693.67 366.064C2694.24 365.412 2695.17 364.802 2696.47 364.232C2697.8 363.635 2698.96 363.336 2699.93 363.336C2702.35 363.336 2704.33 363.947 2705.88 365.168C2707.45 366.362 2708.24 367.801 2708.24 369.484C2708.24 372.415 2706.5 374.627 2703.03 376.12C2704.68 376.12 2706.15 376.635 2707.43 377.667C2708.73 378.698 2709.38 380.177 2709.38 382.104C2709.38 384.031 2708.81 385.714 2707.67 387.153C2706.53 388.618 2705.2 389.677 2703.68 390.328C2702.19 391.007 2700.53 391.346 2698.71 391.346C2696.92 391.346 2695.04 391.007 2693.05 390.328C2693.11 389.297 2693.27 388.578 2693.54 388.17C2693.62 388.17 2693.88 388.225 2694.32 388.333C2694.75 388.442 2695.13 388.523 2695.46 388.578C2696.38 388.74 2697.18 388.822 2697.86 388.822C2698.54 388.822 2699.01 388.808 2699.28 388.781C2699.58 388.754 2700.03 388.686 2700.63 388.578C2701.25 388.469 2701.82 388.279 2702.34 388.008C2702.88 387.736 2703.41 387.41 2703.92 387.03C2705.06 386.135 2705.63 384.846 2705.63 383.163C2705.63 381.453 2705.11 380.177 2704.05 379.336C2703.02 378.494 2701.6 378.074 2699.81 378.074C2699.38 378.074 2698.58 378.128 2697.41 378.237C2697.3 378.101 2697.25 377.789 2697.25 377.3C2697.25 376.785 2697.29 376.296 2697.37 375.835L2699.16 375.59C2700.63 375.4 2701.89 374.803 2702.95 373.799C2704.01 372.768 2704.54 371.519 2704.54 370.054Z" fill="black"/>
<path d="M2877.25 365.087C2877.25 365.087 2877.09 371.071 2876.76 383.041L2880.43 383.366C2880.43 384.126 2880.2 384.941 2879.74 385.809H2869.03L2868.95 384.425C2869.87 384.153 2871.49 383.814 2873.79 383.407C2873.74 381.616 2873.67 378.942 2873.59 375.387C2873.51 371.804 2873.44 369.117 2873.39 367.326C2871.19 368.33 2869.65 368.873 2868.79 368.954C2868.32 368.194 2868.07 367.353 2868.01 366.43L2875.95 363.743C2876.76 364.34 2877.2 364.788 2877.25 365.087ZM2895.06 381.779L2894.65 367.041L2885.74 381.86C2889.86 381.806 2892.97 381.779 2895.06 381.779ZM2898.52 363.825L2898.11 381.779C2899.12 381.779 2900.6 381.806 2902.55 381.86C2902.55 383 2902.41 383.828 2902.14 384.343H2898.07L2897.79 391.142C2897.38 391.224 2896.97 391.265 2896.57 391.265C2896.16 391.265 2895.78 391.21 2895.43 391.102L2895.1 384.343H2882.76C2882.44 383.882 2882.28 383.407 2882.28 382.919C2882.28 382.403 2882.29 382.131 2882.32 382.104L2893.15 363.825H2898.52Z" fill="black"/>
<path d="M3068.41 365.087C3068.41 365.087 3068.24 371.071 3067.92 383.041L3071.58 383.366C3071.58 384.126 3071.35 384.941 3070.89 385.809H3060.18L3060.1 384.425C3061.02 384.153 3062.64 383.814 3064.95 383.407C3064.89 381.616 3064.82 378.942 3064.74 375.387C3064.66 371.804 3064.59 369.117 3064.54 367.326C3062.34 368.33 3060.81 368.873 3059.94 368.954C3059.48 368.194 3059.22 367.353 3059.17 366.43L3067.1 363.743C3067.92 364.34 3068.35 364.788 3068.41 365.087ZM3081.45 373.962C3084.14 373.962 3086.28 374.722 3087.88 376.242C3089.51 377.735 3090.32 379.797 3090.32 382.43C3090.32 385.036 3089.28 387.166 3087.19 388.822C3085.1 390.505 3082.75 391.346 3080.15 391.346C3077.57 391.346 3075.52 391.007 3074 390.328C3074 389.215 3074.18 388.496 3074.53 388.17C3075.72 388.605 3077.38 388.822 3079.5 388.822C3081.75 388.822 3083.48 388.333 3084.71 387.356C3085.22 386.922 3085.67 386.298 3086.05 385.483C3086.43 384.642 3086.62 383.665 3086.62 382.552C3086.62 380.652 3086.16 379.173 3085.24 378.114C3084.31 377.029 3083 376.486 3081.29 376.486C3079.98 376.486 3078.91 376.595 3078.07 376.812C3077.26 377.002 3076.81 377.097 3076.73 377.097C3076.16 376.771 3075.71 376.377 3075.38 375.916L3074.94 363.825H3088.78C3088.78 366.186 3088.61 368.221 3088.29 369.931C3087.83 370.04 3087.12 370.094 3086.17 370.094C3086.01 369.443 3085.85 368.167 3085.68 366.267H3078.6L3078.48 374.369C3079.29 374.098 3080.28 373.962 3081.45 373.962Z" fill="black"/>
<path d="M235.675 285.96V354.505" stroke="black" stroke-width="2.91896"/>
<path d="M254.648 285.96V331.238" stroke="black" stroke-width="1.45948"/>
<path d="M273.621 285.96V331.238" stroke="black" stroke-width="1.45948"/>
<path d="M292.595 285.96V331.238" stroke="black" stroke-width="1.45948"/>
<path d="M311.567 285.96V331.238" stroke="black" stroke-width="1.45948"/>
<path d="M330.541 285.96V342.801" stroke="black" stroke-width="2.91896"/>
<path d="M349.514 285.96V331.238" stroke="black" stroke-width="1.45948"/>
<path d="M368.487 285.96V331.238" stroke="black" stroke-width="1.45948"/>
<path d="M387.461 285.96V331.238" stroke="black" stroke-width="1.45948"/>
<path d="M406.434 285.96V331.238" stroke="black" stroke-width="1.45948"/>
<path d="M425.407 285.96V354.505" stroke="black" stroke-width="2.91896"/>
<path d="M425.407 285.96V354.505" stroke="black" stroke-width="2.91896"/>
<path d="M444.381 285.96V331.238" stroke="black" stroke-width="1.45948"/>
<path d="M463.354 285.96V331.238" stroke="black" stroke-width="1.45948"/>
<path d="M482.327 285.96V331.238" stroke="black" stroke-width="1.45948"/>
<path d="M501.3 285.96V331.238" stroke="black" stroke-width="1.45948"/>
<path d="M520.273 285.96V342.801" stroke="black" stroke-width="2.91896"/>
<path d="M539.246 285.96V331.238" stroke="black" stroke-width="1.45948"/>
<path d="M558.22 285.96V331.238" stroke="black" stroke-width="1.45948"/>
<path d="M577.193 285.96V331.238" stroke="black" stroke-width="1.45948"/>
<path d="M596.166 285.96V331.238" stroke="black" stroke-width="1.45948"/>
<path d="M615.14 285.96V354.505" stroke="black" stroke-width="2.91896"/>
<path d="M615.139 285.96V354.505" stroke="black" stroke-width="2.91896"/>
<path d="M634.112 285.96V331.238" stroke="black" stroke-width="1.45948"/>
<path d="M653.085 285.96V331.238" stroke="black" stroke-width="1.45948"/>
<path d="M672.059 285.96V331.238" stroke="black" stroke-width="1.45948"/>
<path d="M691.031 285.96V331.238" stroke="black" stroke-width="1.45948"/>
<path d="M710.005 285.96V342.801" stroke="black" stroke-width="2.91896"/>
<path d="M728.978 285.96V331.238" stroke="black" stroke-width="1.45948"/>
<path d="M747.951 285.96V331.238" stroke="black" stroke-width="1.45948"/>
<path d="M766.925 285.96V331.238" stroke="black" stroke-width="1.45948"/>
<path d="M785.897 285.96V331.238" stroke="black" stroke-width="1.45948"/>
<path d="M804.871 285.96V354.505" stroke="black" stroke-width="2.91896"/>
<path d="M804.871 285.96V354.505" stroke="black" stroke-width="2.91896"/>
<path d="M823.845 285.96V331.238" stroke="black" stroke-width="1.45948"/>
<path d="M842.817 285.96V331.238" stroke="black" stroke-width="1.45948"/>
<path d="M861.791 285.96V331.238" stroke="black" stroke-width="1.45948"/>
<path d="M880.764 285.96V331.238" stroke="black" stroke-width="1.45948"/>
<path d="M899.737 285.96V342.801" stroke="black" stroke-width="2.91896"/>
<path d="M918.71 285.96V331.238" stroke="black" stroke-width="1.45948"/>
<path d="M937.684 285.96V331.238" stroke="black" stroke-width="1.45948"/>
<path d="M956.657 285.96V331.238" stroke="black" stroke-width="1.45948"/>
<path d="M975.63 285.96V331.238" stroke="black" stroke-width="1.45948"/>
<path d="M994.604 285.96V354.505" stroke="black" stroke-width="2.91896"/>
<path d="M994.604 285.96V354.505" stroke="black" stroke-width="2.91896"/>
<path d="M1013.58 285.96V331.238" stroke="black" stroke-width="1.45948"/>
<path d="M1032.55 285.96V331.238" stroke="black" stroke-width="1.45948"/>
<path d="M1051.52 285.96V331.238" stroke="black" stroke-width="1.45948"/>
<path d="M1070.5 285.96V331.238" stroke="black" stroke-width="1.45948"/>
<path d="M1089.47 285.96V342.801" stroke="black" stroke-width="2.91896"/>
<path d="M1108.44 285.96V331.238" stroke="black" stroke-width="1.45948"/>
<path d="M1127.42 285.96V331.238" stroke="black" stroke-width="1.45948"/>
<path d="M1146.39 285.96V331.238" stroke="black" stroke-width="1.45948"/>
<path d="M1165.36 285.96V331.238" stroke="black" stroke-width="1.45948"/>
<path d="M1184.34 285.96V354.505" stroke="black" stroke-width="2.91896"/>
<path d="M1184.34 285.96V354.505" stroke="black" stroke-width="2.91896"/>
<path d="M1203.31 285.96V331.238" stroke="black" stroke-width="1.45948"/>
<path d="M1222.28 285.96V331.238" stroke="black" stroke-width="1.45948"/>
<path d="M1241.26 285.96V331.238" stroke="black" stroke-width="1.45948"/>
<path d="M1260.23 285.96V331.238" stroke="black" stroke-width="1.45948"/>
<path d="M1279.2 285.96V342.801" stroke="black" stroke-width="2.91896"/>
<path d="M1298.17 285.96V331.238" stroke="black" stroke-width="1.45948"/>
<path d="M1317.15 285.96V331.238" stroke="black" stroke-width="1.45948"/>
<path d="M1336.12 285.96V331.238" stroke="black" stroke-width="1.45948"/>
<path d="M1355.09 285.96V331.238" stroke="black" stroke-width="1.45948"/>
<path d="M1374.07 285.96V354.505" stroke="black" stroke-width="2.91896"/>
<path d="M1374.07 285.96V354.505" stroke="black" stroke-width="2.91896"/>
<path d="M1393.04 285.96V331.238" stroke="black" stroke-width="1.45948"/>
<path d="M1412.01 285.96V331.238" stroke="black" stroke-width="1.45948"/>
<path d="M1430.99 285.96V331.238" stroke="black" stroke-width="1.45948"/>
<path d="M1449.96 285.96V331.238" stroke="black" stroke-width="1.45948"/>
<path d="M1468.93 285.96V342.801" stroke="black" stroke-width="2.91896"/>
<path d="M1487.91 285.96V331.238" stroke="black" stroke-width="1.45948"/>
<path d="M1506.88 285.96V331.238" stroke="black" stroke-width="1.45948"/>
<path d="M1525.85 285.96V331.238" stroke="black" stroke-width="1.45948"/>
<path d="M1544.83 285.96V331.238" stroke="black" stroke-width="1.45948"/>
<path d="M1563.8 285.96V354.505" stroke="black" stroke-width="2.91896"/>
<path d="M1563.8 285.96V354.505" stroke="black" stroke-width="2.91896"/>
<path d="M1582.77 285.96V331.238" stroke="black" stroke-width="1.45948"/>
<path d="M1601.75 285.96V331.238" stroke="black" stroke-width="1.45948"/>
<path d="M1620.72 285.96V331.238" stroke="black" stroke-width="1.45948"/>
<path d="M1639.69 285.96V331.238" stroke="black" stroke-width="1.45948"/>
<path d="M1658.67 285.96V342.801" stroke="black" stroke-width="2.91896"/>
<path d="M1677.64 285.96V331.238" stroke="black" stroke-width="1.45948"/>
<path d="M1696.61 285.96V331.238" stroke="black" stroke-width="1.45948"/>
<path d="M1715.59 285.96V331.238" stroke="black" stroke-width="1.45948"/>
<path d="M1734.56 285.96V331.238" stroke="black" stroke-width="1.45948"/>
<path d="M1753.53 285.96V354.505" stroke="black" stroke-width="2.91896"/>
<path d="M1753.53 285.96V354.505" stroke="black" stroke-width="2.91896"/>
<path d="M1772.51 285.96V331.238" stroke="black" stroke-width="1.45948"/>
<path d="M1791.48 285.96V331.238" stroke="black" stroke-width="1.45948"/>
<path d="M1810.45 285.96V331.238" stroke="black" stroke-width="1.45948"/>
<path d="M1829.42 285.96V331.238" stroke="black" stroke-width="1.45948"/>
<path d="M1848.4 285.96V342.801" stroke="black" stroke-width="2.91896"/>
<path d="M1867.37 285.96V331.238" stroke="black" stroke-width="1.45948"/>
<path d="M1886.34 285.96V331.238" stroke="black" stroke-width="1.45948"/>
<path d="M1905.32 285.96V331.238" stroke="black" stroke-width="1.45948"/>
<path d="M1924.29 285.96V331.238" stroke="black" stroke-width="1.45948"/>
<path d="M1943.26 285.96V354.505" stroke="black" stroke-width="2.91896"/>
<path d="M1943.26 285.96V354.505" stroke="black" stroke-width="2.91896"/>
<path d="M1962.24 285.96V331.238" stroke="black" stroke-width="1.45948"/>
<path d="M1981.21 285.96V331.238" stroke="black" stroke-width="1.45948"/>
<path d="M2000.18 285.96V331.238" stroke="black" stroke-width="1.45948"/>
<path d="M2019.16 285.96V331.238" stroke="black" stroke-width="1.45948"/>
<path d="M2038.13 285.96V342.801" stroke="black" stroke-width="2.91896"/>
<path d="M2057.1 285.96V331.238" stroke="black" stroke-width="1.45948"/>
<path d="M2076.08 285.96V331.238" stroke="black" stroke-width="1.45948"/>
<path d="M2095.05 285.96V331.238" stroke="black" stroke-width="1.45948"/>
<path d="M2114.02 285.96V331.238" stroke="black" stroke-width="1.45948"/>
<path d="M2133 285.96V354.505" stroke="black" stroke-width="2.91896"/>
<path d="M2133 285.96V354.505" stroke="black" stroke-width="2.91896"/>
<path d="M2151.97 285.96V331.238" stroke="black" stroke-width="1.45948"/>
<path d="M2170.94 285.96V331.238" stroke="black" stroke-width="1.45948"/>
<path d="M2189.92 285.96V331.238" stroke="black" stroke-width="1.45948"/>
<path d="M2208.89 285.96V331.238" stroke="black" stroke-width="1.45948"/>
<path d="M2227.86 285.96V342.801" stroke="black" stroke-width="2.91896"/>
<path d="M2246.83 285.96V331.238" stroke="black" stroke-width="1.45948"/>
<path d="M2265.81 285.96V331.238" stroke="black" stroke-width="1.45948"/>
<path d="M2284.78 285.96V331.238" stroke="black" stroke-width="1.45948"/>
<path d="M2303.75 285.96V331.238" stroke="black" stroke-width="1.45948"/>
<path d="M2322.73 285.96V354.505" stroke="black" stroke-width="2.91896"/>
<path d="M2322.73 285.96V354.505" stroke="black" stroke-width="2.91896"/>
<path d="M2341.7 285.96V331.238" stroke="black" stroke-width="1.45948"/>
<path d="M2360.67 285.96V331.238" stroke="black" stroke-width="1.45948"/>
<path d="M2379.65 285.96V331.238" stroke="black" stroke-width="1.45948"/>
<path d="M2398.62 285.96V331.238" stroke="black" stroke-width="1.45948"/>
<path d="M2417.59 285.96V342.801" stroke="black" stroke-width="2.91896"/>
<path d="M2436.57 285.96V331.238" stroke="black" stroke-width="1.45948"/>
<path d="M2455.54 285.96V331.238" stroke="black" stroke-width="1.45948"/>
<path d="M2474.51 285.96V331.238" stroke="black" stroke-width="1.45948"/>
<path d="M2493.49 285.96V331.238" stroke="black" stroke-width="1.45948"/>
<path d="M2512.46 285.96V354.505" stroke="black" stroke-width="2.91896"/>
<path d="M2512.46 285.96V354.505" stroke="black" stroke-width="2.91896"/>
<path d="M2531.43 285.96V331.238" stroke="black" stroke-width="1.45948"/>
<path d="M2550.41 285.96V331.238" stroke="black" stroke-width="1.45948"/>
<path d="M2569.38 285.96V331.238" stroke="black" stroke-width="1.45948"/>
<path d="M2588.35 285.96V331.238" stroke="black" stroke-width="1.45948"/>
<path d="M2607.33 285.96V342.801" stroke="black" stroke-width="2.91896"/>
<path d="M2626.3 285.96V331.238" stroke="black" stroke-width="1.45948"/>
<path d="M2645.27 285.96V331.238" stroke="black" stroke-width="1.45948"/>
<path d="M2664.25 285.96V331.238" stroke="black" stroke-width="1.45948"/>
<path d="M2683.22 285.96V331.238" stroke="black" stroke-width="1.45948"/>
<path d="M2702.19 285.96V354.505" stroke="black" stroke-width="2.91896"/>
<path d="M2702.19 285.96V354.505" stroke="black" stroke-width="2.91896"/>
<path d="M2721.17 285.96V331.238" stroke="black" stroke-width="1.45948"/>
<path d="M2740.14 285.96V331.238" stroke="black" stroke-width="1.45948"/>
<path d="M2759.11 285.96V331.238" stroke="black" stroke-width="1.45948"/>
<path d="M2778.09 285.96V331.238" stroke="black" stroke-width="1.45948"/>
<path d="M2797.06 285.96V342.801" stroke="black" stroke-width="2.91896"/>
<path d="M2816.03 285.96V331.238" stroke="black" stroke-width="1.45948"/>
<path d="M2835.01 285.96V331.238" stroke="black" stroke-width="1.45948"/>
<path d="M2853.98 285.96V331.238" stroke="black" stroke-width="1.45948"/>
<path d="M2872.95 285.96V331.238" stroke="black" stroke-width="1.45948"/>
<path d="M2891.93 285.96V354.505" stroke="black" stroke-width="2.91896"/>
<path d="M2891.92 285.96V354.505" stroke="black" stroke-width="2.91896"/>
<path d="M2910.9 285.96V331.238" stroke="black" stroke-width="1.45948"/>
<path d="M2929.87 285.96V331.238" stroke="black" stroke-width="1.45948"/>
<path d="M2948.84 285.96V331.238" stroke="black" stroke-width="1.45948"/>
<path d="M2967.82 285.96V331.238" stroke="black" stroke-width="1.45948"/>
<path d="M2986.79 285.96V342.801" stroke="black" stroke-width="2.91896"/>
<path d="M3005.76 285.96V331.238" stroke="black" stroke-width="1.45948"/>
<path d="M3024.74 285.96V331.238" stroke="black" stroke-width="1.45948"/>
<path d="M3043.71 285.96V331.238" stroke="black" stroke-width="1.45948"/>
<path d="M3062.68 285.96V331.238" stroke="black" stroke-width="1.45948"/>
<path d="M3081.66 285.96V354.505" stroke="black" stroke-width="2.91896"/>
<path d="M3081.65 474.191L3081.65 405.646" stroke="black" stroke-width="2.91896"/>
<path d="M3062.68 474.191L3062.68 428.913" stroke="black" stroke-width="1.45948"/>
<path d="M3043.71 474.191L3043.71 428.913" stroke="black" stroke-width="1.45948"/>
<path d="M3024.73 474.191L3024.73 428.913" stroke="black" stroke-width="1.45948"/>
<path d="M3005.76 474.191L3005.76 428.913" stroke="black" stroke-width="1.45948"/>
<path d="M2986.79 474.191L2986.79 417.35" stroke="black" stroke-width="2.91896"/>
<path d="M2967.82 474.191L2967.82 428.913" stroke="black" stroke-width="1.45948"/>
<path d="M2948.84 474.191L2948.84 428.913" stroke="black" stroke-width="1.45948"/>
<path d="M2929.87 474.191L2929.87 428.913" stroke="black" stroke-width="1.45948"/>
<path d="M2910.9 474.191L2910.9 428.913" stroke="black" stroke-width="1.45948"/>
<path d="M2891.92 474.191L2891.92 405.646" stroke="black" stroke-width="2.91896"/>
<path d="M2891.92 474.191L2891.92 405.646" stroke="black" stroke-width="2.91896"/>
<path d="M2872.95 474.191L2872.95 428.913" stroke="black" stroke-width="1.45948"/>
<path d="M2853.98 474.191L2853.98 428.913" stroke="black" stroke-width="1.45948"/>
<path d="M2835 474.191L2835 428.913" stroke="black" stroke-width="1.45948"/>
<path d="M2816.03 474.191L2816.03 428.913" stroke="black" stroke-width="1.45948"/>
<path d="M2797.06 474.191L2797.06 417.35" stroke="black" stroke-width="2.91896"/>
<path d="M2778.08 474.191L2778.08 428.913" stroke="black" stroke-width="1.45948"/>
<path d="M2759.11 474.191L2759.11 428.913" stroke="black" stroke-width="1.45948"/>
<path d="M2740.14 474.191L2740.14 428.913" stroke="black" stroke-width="1.45948"/>
<path d="M2721.16 474.191L2721.16 428.913" stroke="black" stroke-width="1.45948"/>
<path d="M2702.19 474.191L2702.19 405.646" stroke="black" stroke-width="2.91896"/>
<path d="M2702.19 474.191L2702.19 405.646" stroke="black" stroke-width="2.91896"/>
<path d="M2683.22 474.191L2683.22 428.913" stroke="black" stroke-width="1.45948"/>
<path d="M2664.24 474.191L2664.24 428.913" stroke="black" stroke-width="1.45948"/>
<path d="M2645.27 474.191L2645.27 428.913" stroke="black" stroke-width="1.45948"/>
<path d="M2626.3 474.191L2626.3 428.913" stroke="black" stroke-width="1.45948"/>
<path d="M2607.32 474.191L2607.32 417.35" stroke="black" stroke-width="2.91896"/>
<path d="M2588.35 474.191L2588.35 428.913" stroke="black" stroke-width="1.45948"/>
<path d="M2569.38 474.191L2569.38 428.913" stroke="black" stroke-width="1.45948"/>
<path d="M2550.4 474.191L2550.4 428.913" stroke="black" stroke-width="1.45948"/>
<path d="M2531.43 474.191L2531.43 428.913" stroke="black" stroke-width="1.45948"/>
<path d="M2512.46 474.191L2512.46 405.646" stroke="black" stroke-width="2.91896"/>
<path d="M2512.46 474.191L2512.46 405.646" stroke="black" stroke-width="2.91896"/>
<path d="M2493.48 474.191L2493.48 428.913" stroke="black" stroke-width="1.45948"/>
<path d="M2474.51 474.191L2474.51 428.913" stroke="black" stroke-width="1.45948"/>
<path d="M2455.54 474.191L2455.54 428.913" stroke="black" stroke-width="1.45948"/>
<path d="M2436.57 474.191L2436.57 428.913" stroke="black" stroke-width="1.45948"/>
<path d="M2417.59 474.191L2417.59 417.35" stroke="black" stroke-width="2.91896"/>
<path d="M2398.62 474.191L2398.62 428.913" stroke="black" stroke-width="1.45948"/>
<path d="M2379.65 474.191L2379.65 428.913" stroke="black" stroke-width="1.45948"/>
<path d="M2360.67 474.191L2360.67 428.913" stroke="black" stroke-width="1.45948"/>
<path d="M2341.7 474.191L2341.7 428.913" stroke="black" stroke-width="1.45948"/>
<path d="M2322.73 474.191L2322.73 405.646" stroke="black" stroke-width="2.91896"/>
<path d="M2322.73 474.191L2322.73 405.646" stroke="black" stroke-width="2.91896"/>
<path d="M2303.75 474.191L2303.75 428.913" stroke="black" stroke-width="1.45948"/>
<path d="M2284.78 474.191L2284.78 428.913" stroke="black" stroke-width="1.45948"/>
<path d="M2265.81 474.191L2265.81 428.913" stroke="black" stroke-width="1.45948"/>
<path d="M2246.83 474.191L2246.83 428.913" stroke="black" stroke-width="1.45948"/>
<path d="M2227.86 474.191L2227.86 417.35" stroke="black" stroke-width="2.91896"/>
<path d="M2208.89 474.191L2208.89 428.913" stroke="black" stroke-width="1.45948"/>
<path d="M2189.91 474.191L2189.91 428.913" stroke="black" stroke-width="1.45948"/>
<path d="M2170.94 474.191L2170.94 428.913" stroke="black" stroke-width="1.45948"/>
<path d="M2151.97 474.191L2151.97 428.913" stroke="black" stroke-width="1.45948"/>
<path d="M2132.99 474.191L2132.99 405.646" stroke="black" stroke-width="2.91896"/>
<path d="M2132.99 474.191L2132.99 405.646" stroke="black" stroke-width="2.91896"/>
<path d="M2114.02 474.191L2114.02 428.913" stroke="black" stroke-width="1.45948"/>
<path d="M2095.05 474.191L2095.05 428.913" stroke="black" stroke-width="1.45948"/>
<path d="M2076.07 474.191L2076.07 428.913" stroke="black" stroke-width="1.45948"/>
<path d="M2057.1 474.191L2057.1 428.913" stroke="black" stroke-width="1.45948"/>
<path d="M2038.13 474.191L2038.13 417.35" stroke="black" stroke-width="2.91896"/>
<path d="M2019.15 474.191L2019.15 428.913" stroke="black" stroke-width="1.45948"/>
<path d="M2000.18 474.191L2000.18 428.913" stroke="black" stroke-width="1.45948"/>
<path d="M1981.21 474.191L1981.21 428.913" stroke="black" stroke-width="1.45948"/>
<path d="M1962.23 474.191L1962.23 428.913" stroke="black" stroke-width="1.45948"/>
<path d="M1943.26 474.191L1943.26 405.646" stroke="black" stroke-width="2.91896"/>
<path d="M1943.26 474.191L1943.26 405.646" stroke="black" stroke-width="2.91896"/>
<path d="M1924.29 474.191L1924.29 428.913" stroke="black" stroke-width="1.45948"/>
<path d="M1905.32 474.191L1905.32 428.913" stroke="black" stroke-width="1.45948"/>
<path d="M1886.34 474.191L1886.34 428.913" stroke="black" stroke-width="1.45948"/>
<path d="M1867.37 474.191L1867.37 428.913" stroke="black" stroke-width="1.45948"/>
<path d="M1848.4 474.191L1848.4 417.35" stroke="black" stroke-width="2.91896"/>
<path d="M1829.42 474.191L1829.42 428.913" stroke="black" stroke-width="1.45948"/>
<path d="M1810.45 474.191L1810.45 428.913" stroke="black" stroke-width="1.45948"/>
<path d="M1791.48 474.191L1791.48 428.913" stroke="black" stroke-width="1.45948"/>
<path d="M1772.5 474.191L1772.5 428.913" stroke="black" stroke-width="1.45948"/>
<path d="M1753.53 474.191L1753.53 405.646" stroke="black" stroke-width="2.91896"/>
<path d="M1753.53 474.191L1753.53 405.646" stroke="black" stroke-width="2.91896"/>
<path d="M1734.56 474.191L1734.56 428.913" stroke="black" stroke-width="1.45948"/>
<path d="M1715.58 474.191L1715.58 428.913" stroke="black" stroke-width="1.45948"/>
<path d="M1696.61 474.191L1696.61 428.913" stroke="black" stroke-width="1.45948"/>
<path d="M1677.64 474.191L1677.64 428.913" stroke="black" stroke-width="1.45948"/>
<path d="M1658.66 474.191L1658.66 417.35" stroke="black" stroke-width="2.91896"/>
<path d="M1639.69 474.191L1639.69 428.913" stroke="black" stroke-width="1.45948"/>
<path d="M1620.72 474.191L1620.72 428.913" stroke="black" stroke-width="1.45948"/>
<path d="M1601.74 474.191L1601.74 428.913" stroke="black" stroke-width="1.45948"/>
<path d="M1582.77 474.191L1582.77 428.913" stroke="black" stroke-width="1.45948"/>
<path d="M1563.8 474.191L1563.8 405.646" stroke="black" stroke-width="2.91896"/>
<path d="M1563.8 474.191L1563.8 405.646" stroke="black" stroke-width="2.91896"/>
<path d="M1544.82 474.191L1544.82 428.913" stroke="black" stroke-width="1.45948"/>
<path d="M1525.85 474.191L1525.85 428.913" stroke="black" stroke-width="1.45948"/>
<path d="M1506.88 474.191L1506.88 428.913" stroke="black" stroke-width="1.45948"/>
<path d="M1487.9 474.191L1487.9 428.913" stroke="black" stroke-width="1.45948"/>
<path d="M1468.93 474.191L1468.93 417.35" stroke="black" stroke-width="2.91896"/>
<path d="M1449.96 474.191L1449.96 428.913" stroke="black" stroke-width="1.45948"/>
<path d="M1430.98 474.191L1430.98 428.913" stroke="black" stroke-width="1.45948"/>
<path d="M1412.01 474.191L1412.01 428.913" stroke="black" stroke-width="1.45948"/>
<path d="M1393.04 474.191L1393.04 428.913" stroke="black" stroke-width="1.45948"/>
<path d="M1374.06 474.191L1374.06 405.646" stroke="black" stroke-width="2.91896"/>
<path d="M1374.06 474.191L1374.06 405.646" stroke="black" stroke-width="2.91896"/>
<path d="M1355.09 474.191L1355.09 428.913" stroke="black" stroke-width="1.45948"/>
<path d="M1336.12 474.191L1336.12 428.913" stroke="black" stroke-width="1.45948"/>
<path d="M1317.14 474.191L1317.14 428.913" stroke="black" stroke-width="1.45948"/>
<path d="M1298.17 474.191L1298.17 428.913" stroke="black" stroke-width="1.45948"/>
<path d="M1279.2 474.191L1279.2 417.35" stroke="black" stroke-width="2.91896"/>
<path d="M1260.23 474.191L1260.23 428.913" stroke="black" stroke-width="1.45948"/>
<path d="M1241.25 474.191L1241.25 428.913" stroke="black" stroke-width="1.45948"/>
<path d="M1222.28 474.191L1222.28 428.913" stroke="black" stroke-width="1.45948"/>
<path d="M1203.31 474.191L1203.31 428.913" stroke="black" stroke-width="1.45948"/>
<path d="M1184.33 474.191L1184.33 405.646" stroke="black" stroke-width="2.91896"/>
<path d="M1184.33 474.191L1184.33 405.646" stroke="black" stroke-width="2.91896"/>
<path d="M1165.36 474.191L1165.36 428.913" stroke="black" stroke-width="1.45948"/>
<path d="M1146.39 474.191L1146.39 428.913" stroke="black" stroke-width="1.45948"/>
<path d="M1127.41 474.191L1127.41 428.913" stroke="black" stroke-width="1.45948"/>
<path d="M1108.44 474.191L1108.44 428.913" stroke="black" stroke-width="1.45948"/>
<path d="M1089.47 474.191L1089.47 417.35" stroke="black" stroke-width="2.91896"/>
<path d="M1070.49 474.191L1070.49 428.913" stroke="black" stroke-width="1.45948"/>
<path d="M1051.52 474.191L1051.52 428.913" stroke="black" stroke-width="1.45948"/>
<path d="M1032.55 474.191L1032.55 428.913" stroke="black" stroke-width="1.45948"/>
<path d="M1013.57 474.191L1013.57 428.913" stroke="black" stroke-width="1.45948"/>
<path d="M994.601 474.191L994.601 405.646" stroke="black" stroke-width="2.91896"/>
<path d="M994.601 474.191L994.601 405.646" stroke="black" stroke-width="2.91896"/>
<path d="M975.627 474.191L975.627 428.913" stroke="black" stroke-width="1.45948"/>
<path d="M956.654 474.191L956.654 428.913" stroke="black" stroke-width="1.45948"/>
<path d="M937.681 474.191L937.681 428.913" stroke="black" stroke-width="1.45948"/>
<path d="M918.708 474.191L918.708 428.913" stroke="black" stroke-width="1.45948"/>
<path d="M899.734 474.191L899.734 417.35" stroke="black" stroke-width="2.91896"/>
<path d="M880.762 474.191L880.762 428.913" stroke="black" stroke-width="1.45948"/>
<path d="M861.788 474.191L861.788 428.913" stroke="black" stroke-width="1.45948"/>
<path d="M842.814 474.191L842.814 428.913" stroke="black" stroke-width="1.45948"/>
<path d="M823.842 474.191L823.842 428.913" stroke="black" stroke-width="1.45948"/>
<path d="M804.868 474.191L804.868 405.646" stroke="black" stroke-width="2.91896"/>
<path d="M804.868 474.191L804.868 405.646" stroke="black" stroke-width="2.91896"/>
<path d="M785.895 474.191L785.895 428.913" stroke="black" stroke-width="1.45948"/>
<path d="M766.922 474.191L766.922 428.913" stroke="black" stroke-width="1.45948"/>
<path d="M747.948 474.191L747.948 428.913" stroke="black" stroke-width="1.45948"/>
<path d="M728.976 474.191L728.976 428.913" stroke="black" stroke-width="1.45948"/>
<path d="M710.002 474.191L710.002 417.35" stroke="black" stroke-width="2.91896"/>
<path d="M691.029 474.191L691.029 428.913" stroke="black" stroke-width="1.45948"/>
<path d="M672.056 474.191L672.056 428.913" stroke="black" stroke-width="1.45948"/>
<path d="M653.082 474.191L653.082 428.913" stroke="black" stroke-width="1.45948"/>
<path d="M634.109 474.191L634.109 428.913" stroke="black" stroke-width="1.45948"/>
<path d="M615.136 474.191L615.136 405.646" stroke="black" stroke-width="2.91896"/>
<path d="M615.137 474.191L615.137 405.646" stroke="black" stroke-width="2.91896"/>
<path d="M596.163 474.191L596.163 428.913" stroke="black" stroke-width="1.45948"/>
<path d="M577.19 474.191L577.19 428.913" stroke="black" stroke-width="1.45948"/>
<path d="M558.217 474.191L558.217 428.913" stroke="black" stroke-width="1.45948"/>
<path d="M539.244 474.191L539.244 428.913" stroke="black" stroke-width="1.45948"/>
<path d="M520.271 474.191L520.271 417.35" stroke="black" stroke-width="2.91896"/>
<path d="M501.298 474.191L501.298 428.913" stroke="black" stroke-width="1.45948"/>
<path d="M482.324 474.191L482.324 428.913" stroke="black" stroke-width="1.45948"/>
<path d="M463.351 474.191L463.351 428.913" stroke="black" stroke-width="1.45948"/>
<path d="M444.378 474.191L444.378 428.913" stroke="black" stroke-width="1.45948"/>
<path d="M425.404 474.191L425.404 405.646" stroke="black" stroke-width="2.91896"/>
<path d="M425.404 474.191L425.404 405.646" stroke="black" stroke-width="2.91896"/>
<path d="M406.431 474.191L406.431 428.913" stroke="black" stroke-width="1.45948"/>
<path d="M387.458 474.191L387.458 428.913" stroke="black" stroke-width="1.45948"/>
<path d="M368.484 474.191L368.484 428.913" stroke="black" stroke-width="1.45948"/>
<path d="M349.512 474.191L349.512 428.913" stroke="black" stroke-width="1.45948"/>
<path d="M330.538 474.191L330.538 417.35" stroke="black" stroke-width="2.91896"/>
<path d="M311.565 474.191L311.565 428.913" stroke="black" stroke-width="1.45948"/>
<path d="M292.592 474.191L292.592 428.913" stroke="black" stroke-width="1.45948"/>
<path d="M273.618 474.191L273.618 428.913" stroke="black" stroke-width="1.45948"/>
<path d="M254.646 474.191L254.646 428.913" stroke="black" stroke-width="1.45948"/>
<path d="M235.672 474.191L235.672 405.646" stroke="black" stroke-width="2.91896"/>
<path d="M208.187 888.536H148.851V1036.65" stroke="black" stroke-width="1.45948"/>
<path d="M122.786 120.764H147.247V28.7965" stroke="black" stroke-width="1.45948"/>
</g>
<defs>
<clipPath id="clip0_37_1472">
<rect width="3392.76" height="1071.56" fill="white" transform="translate(0.438477 0.00488281)"/>
</clipPath>
</defs>
</svg>
