<svg width="3394" height="661" viewBox="0 0 3394 661" fill="none" xmlns="http://www.w3.org/2000/svg">
<g clip-path="url(#clip0_64_1707)">
<path d="M3393.2 166.178H868.407V194.722H3393.2V166.178Z" fill="#9BE1FF" stroke="black" stroke-width="1.45948"/>
<path d="M54.5938 260.534C54.5938 161.725 54.5937 34.1579 54.5938 18.3085C54.5938 17.5024 55.2472 16.8667 56.0533 16.8667L121.944 16.8671L165.252 16.8671L234.8 16.8667C235.606 16.8667 236.259 17.5201 236.259 18.3262V64.3017C236.259 65.1078 236.913 65.7612 237.719 65.7612H3391.74C3392.55 65.7612 3393.2 66.4146 3393.2 67.2207V292.338C3393.2 293.144 3392.55 293.797 3391.74 293.797H208.399C207.593 293.797 206.94 294.451 206.94 295.257V647.973C206.94 649.108 205.728 649.8 204.779 649.179C195.305 642.982 156.002 615.473 113.024 559.586C63.6412 495.368 54.5938 432.432 54.5938 359.44L54.5938 260.534Z" fill="#9BE1FF" stroke="black" stroke-width="2.91896"/>
<path d="M240.47 164.006C243.7 164.006 246.075 165.01 247.595 167.018C249.142 169 249.915 171.768 249.915 175.324C249.915 178.852 249.142 181.688 247.595 183.833C246.075 185.977 243.686 187.049 240.429 187.049C237.172 187.049 234.811 186.099 233.345 184.199C231.907 182.272 231.188 179.395 231.188 175.568C231.188 167.86 234.282 164.006 240.47 164.006ZM235.584 181.675C235.937 182.652 236.521 183.385 237.335 183.873C238.149 184.335 239.126 184.565 240.266 184.565C241.433 184.565 242.383 184.389 243.116 184.036C243.849 183.683 244.405 183.263 244.785 182.774C245.193 182.285 245.491 181.607 245.681 180.738C246.007 179.381 246.17 177.644 246.17 175.527C246.17 169.529 244.27 166.53 240.47 166.53C239.439 166.53 238.543 166.72 237.783 167.1C237.05 167.48 236.494 167.941 236.114 168.484C235.734 169.027 235.435 169.719 235.218 170.56C234.892 171.863 234.73 173.329 234.73 174.957C234.73 176.586 234.784 177.875 234.892 178.825C235.001 179.748 235.232 180.698 235.584 181.675Z" fill="black"/>
<path d="M427.974 165.797C427.974 165.797 427.811 171.782 427.485 183.751L431.149 184.077C431.149 184.837 430.919 185.651 430.457 186.52H419.75L419.669 185.135C420.591 184.864 422.206 184.525 424.513 184.118C424.459 182.326 424.391 179.653 424.31 176.097C424.228 172.515 424.161 169.828 424.106 168.036C421.908 169.04 420.374 169.583 419.506 169.665C419.044 168.905 418.787 168.063 418.732 167.141L426.671 164.454C427.485 165.051 427.92 165.499 427.974 165.797Z" fill="black"/>
<path d="M620.025 180.25C620.215 180.223 620.445 180.209 620.717 180.209C621.205 180.209 621.68 180.277 622.142 180.413C622.467 182.041 622.63 184.077 622.63 186.52H608.381C608.055 185.95 607.892 185.447 607.892 185.013C607.892 184.552 607.906 184.267 607.933 184.158C613.551 178.811 616.578 175.907 617.012 175.446C617.446 174.957 617.88 174.238 618.315 173.288C618.776 172.338 619.007 171.388 619.007 170.438C619.007 169.461 618.627 168.566 617.867 167.751C617.134 166.937 616.008 166.53 614.488 166.53C613.646 166.53 612.927 166.611 612.33 166.774L611.353 171.782C611.082 171.809 610.783 171.822 610.457 171.822C610.132 171.822 609.643 171.768 608.992 171.66C608.557 170.493 608.327 168.878 608.3 166.815C608.978 166.163 609.942 165.553 611.19 164.983C612.466 164.386 613.674 164.087 614.813 164.087C617.202 164.087 619.115 164.698 620.554 165.919C622.019 167.113 622.752 168.43 622.752 169.868C622.752 171.714 622.359 173.315 621.572 174.672C620.812 176.029 619.536 177.468 617.745 178.988L612.289 183.629L612.411 184.118L619.536 184.077C619.672 182.231 619.835 180.956 620.025 180.25Z" fill="black"/>
<path d="M804.268 170.764C804.268 167.86 802.613 166.408 799.301 166.408C798.759 166.408 798.134 166.503 797.429 166.693L796.451 171.741C795.393 171.741 794.606 171.7 794.09 171.619C793.629 170.262 793.398 168.647 793.398 166.774C793.968 166.123 794.904 165.512 796.207 164.942C797.537 164.345 798.691 164.046 799.668 164.046C802.083 164.046 804.065 164.657 805.612 165.879C807.186 167.073 807.973 168.511 807.973 170.194C807.973 173.125 806.236 175.337 802.762 176.83C804.417 176.83 805.883 177.346 807.159 178.377C808.462 179.408 809.113 180.888 809.113 182.815C809.113 184.742 808.543 186.425 807.403 187.863C806.263 189.329 804.933 190.387 803.413 191.039C801.92 191.717 800.265 192.056 798.446 192.056C796.655 192.056 794.769 191.717 792.787 191.039C792.842 190.007 793.005 189.288 793.276 188.881C793.357 188.881 793.615 188.935 794.049 189.044C794.484 189.152 794.864 189.234 795.189 189.288C796.112 189.451 796.913 189.532 797.591 189.532C798.27 189.532 798.745 189.519 799.016 189.492C799.315 189.464 799.763 189.397 800.36 189.288C800.984 189.179 801.554 188.989 802.07 188.718C802.613 188.447 803.142 188.121 803.658 187.741C804.797 186.845 805.367 185.556 805.367 183.873C805.367 182.163 804.838 180.888 803.78 180.046C802.748 179.205 801.337 178.784 799.546 178.784C799.111 178.784 798.311 178.839 797.144 178.947C797.035 178.811 796.981 178.499 796.981 178.011C796.981 177.495 797.021 177.006 797.103 176.545L798.894 176.301C800.36 176.111 801.622 175.514 802.68 174.509C803.739 173.478 804.268 172.23 804.268 170.764Z" fill="black"/>
<path d="M988.331 182.489L987.924 167.751L979.008 182.57C983.133 182.516 986.241 182.489 988.331 182.489ZM991.791 164.535L991.384 182.489C992.388 182.489 993.868 182.516 995.822 182.57C995.822 183.71 995.686 184.538 995.415 185.054H991.343L991.058 191.853C990.651 191.934 990.244 191.975 989.837 191.975C989.43 191.975 989.05 191.921 988.697 191.812L988.371 185.054H976.036C975.71 184.592 975.547 184.118 975.547 183.629C975.547 183.113 975.561 182.842 975.588 182.815L986.417 164.535H991.791Z" fill="black"/>
<path d="M1183.81 174.672C1186.5 174.672 1188.64 175.432 1190.24 176.952C1191.87 178.445 1192.68 180.508 1192.68 183.14C1192.68 185.746 1191.64 187.877 1189.55 189.532C1187.46 191.215 1185.11 192.056 1182.51 192.056C1179.93 192.056 1177.88 191.717 1176.36 191.039C1176.36 189.926 1176.53 189.207 1176.89 188.881C1178.08 189.315 1179.74 189.532 1181.85 189.532C1184.11 189.532 1185.84 189.044 1187.07 188.067C1187.58 187.632 1188.03 187.008 1188.41 186.194C1188.79 185.352 1188.98 184.375 1188.98 183.263C1188.98 181.363 1188.52 179.883 1187.59 178.825C1186.67 177.739 1185.36 177.196 1183.65 177.196C1182.34 177.196 1181.27 177.305 1180.43 177.522C1179.61 177.712 1179.17 177.807 1179.09 177.807C1178.52 177.481 1178.07 177.088 1177.74 176.626L1177.29 164.535H1191.14C1191.14 166.896 1190.97 168.932 1190.65 170.642C1190.19 170.75 1189.48 170.805 1188.53 170.805C1188.37 170.153 1188.21 168.878 1188.04 166.978H1180.96L1180.84 175.079C1181.65 174.808 1182.64 174.672 1183.81 174.672Z" fill="black"/>
<path d="M1366.65 173.532C1366.63 173.75 1366.61 174.252 1366.61 175.039C1366.61 175.826 1366.69 176.721 1366.86 177.726C1367.02 178.73 1367.3 179.788 1367.71 180.901C1368.12 181.987 1368.76 182.869 1369.62 183.548C1370.49 184.226 1371.52 184.565 1372.72 184.565C1374.62 184.565 1376 183.928 1376.87 182.652C1377.74 181.376 1378.17 179.693 1378.17 177.604C1378.17 175.514 1377.81 173.939 1377.08 172.881C1376.37 171.795 1375 171.253 1372.96 171.253C1370.93 171.253 1368.82 172.012 1366.65 173.532ZM1373.17 168.728C1375.88 168.728 1378.01 169.502 1379.56 171.049C1381.13 172.569 1381.92 174.849 1381.92 177.889C1381.92 180.901 1381.05 183.181 1379.31 184.728C1377.6 186.275 1375.37 187.049 1372.6 187.049C1369.91 187.049 1367.64 186.004 1365.8 183.914C1364.85 182.855 1364.1 181.363 1363.56 179.436C1363.02 177.481 1362.74 175.337 1362.74 173.003C1362.74 170.669 1363.04 168.633 1363.64 166.896C1364.24 165.159 1365.02 163.707 1366 162.54C1367.01 161.346 1368.16 160.328 1369.46 159.487C1371.93 157.858 1374.63 157.044 1377.56 157.044C1377.89 157.37 1378.05 158.089 1378.05 159.202C1374.42 159.473 1371.65 160.627 1369.75 162.662C1367.87 164.671 1366.79 167.561 1366.49 171.334C1367.25 170.628 1368.32 170.018 1369.71 169.502C1371.09 168.986 1372.24 168.728 1373.17 168.728Z" fill="black"/>
<path d="M1553.44 166.408C1553.44 165.756 1553.48 165.119 1553.56 164.494L1568.79 164.535C1569.33 165.078 1569.6 165.811 1569.6 166.733C1567.84 172.135 1566.17 177.074 1564.59 181.553C1563.02 186.004 1561.77 189.546 1560.85 192.179C1559.81 192.043 1559.08 191.785 1558.65 191.405L1565.94 166.978H1557.55L1556.53 171.945C1555.47 171.945 1554.69 171.89 1554.17 171.782C1553.68 170.208 1553.44 168.416 1553.44 166.408Z" fill="black"/>
<path d="M1756.5 183C1756.5 185.389 1755.76 187.384 1754.3 188.985C1752.83 190.586 1750.61 191.387 1747.62 191.387C1745.48 191.387 1743.5 190.817 1741.68 189.677C1740.76 189.107 1740 188.266 1739.4 187.153C1738.83 186.04 1738.54 184.737 1738.54 183.245C1738.54 180.069 1740.36 177.246 1744 174.776L1743.88 174.695C1742.17 173.881 1740.96 172.972 1740.25 171.967C1739.55 170.936 1739.19 169.389 1739.19 167.326C1739.19 165.236 1739.94 163.553 1741.43 162.278C1742.95 161.002 1745.03 160.364 1747.66 160.364C1750.32 160.364 1752.39 161.029 1753.85 162.359C1755.34 163.662 1756.09 165.345 1756.09 167.408C1756.09 169.443 1755.64 171.031 1754.75 172.171C1753.85 173.284 1752.52 174.342 1750.76 175.346C1754.58 177.653 1756.5 180.205 1756.5 183ZM1751.41 188.293C1752.3 186.556 1752.75 184.873 1752.75 183.245C1752.75 181.616 1752.26 180.3 1751.29 179.295C1750.34 178.264 1748.63 177.111 1746.16 175.835C1744.88 176.785 1743.92 177.816 1743.27 178.929C1742.61 180.042 1742.29 181.331 1742.29 182.797C1742.29 184.262 1742.47 185.402 1742.82 186.217C1743.17 187.004 1743.63 187.587 1744.2 187.967C1745.29 188.673 1746.33 189.026 1747.34 189.026C1749.07 189.026 1750.31 188.836 1751.04 188.456L1751.41 188.293ZM1752.34 167.245C1752.34 164.313 1750.77 162.848 1747.62 162.848C1746.21 162.848 1744.99 163.065 1743.96 163.499C1743.28 164.721 1742.94 165.983 1742.94 167.285C1742.94 170.217 1744.41 172.32 1747.34 173.596C1747.5 173.65 1747.95 173.867 1748.68 174.247C1751.12 172.727 1752.34 170.393 1752.34 167.245Z" fill="black"/>
<path d="M1938.55 166.367C1934.86 166.367 1933.01 168.688 1933.01 173.329C1933.01 175.256 1933.54 176.735 1934.6 177.766C1935.66 178.771 1937.08 179.273 1938.87 179.273C1939.39 179.273 1940.18 179.042 1941.24 178.581C1942.32 178.119 1943.11 177.726 1943.6 177.4C1943.76 176.477 1943.84 175.487 1943.84 174.428C1943.84 173.342 1943.76 172.392 1943.6 171.578C1943.43 170.737 1943.18 169.909 1942.82 169.095C1942.47 168.253 1941.93 167.588 1941.2 167.1C1940.46 166.611 1939.58 166.367 1938.55 166.367ZM1938.14 181.675C1935.46 181.675 1933.31 180.847 1931.71 179.191C1930.11 177.536 1929.31 175.432 1929.31 172.881C1929.31 170.33 1930.11 168.213 1931.71 166.53C1933.34 164.847 1935.6 164.006 1938.51 164.006C1941.44 164.006 1943.67 164.956 1945.19 166.856C1946.71 168.755 1947.47 171.402 1947.47 174.794C1947.47 179.788 1946.3 183.887 1943.96 187.09C1942.8 188.691 1941.24 189.926 1939.28 190.794C1937.33 191.69 1935.05 192.138 1932.44 192.138C1932.25 191.894 1932.16 191.5 1932.16 190.957L1932.2 190.346C1935.73 190.075 1938.3 189.098 1939.93 187.415C1941.56 185.732 1942.65 183.208 1943.19 179.843C1942.54 180.386 1941.71 180.833 1940.71 181.186C1939.73 181.512 1938.87 181.675 1938.14 181.675Z" fill="black"/>
<path d="M2124.42 165.797C2124.42 165.797 2124.25 171.782 2123.93 183.751L2127.59 184.077C2127.59 184.837 2127.36 185.651 2126.9 186.52H2116.19L2116.11 185.135C2117.03 184.864 2118.65 184.525 2120.95 184.118C2120.9 182.326 2120.83 179.653 2120.75 176.097C2120.67 172.515 2120.6 169.828 2120.55 168.036C2118.35 169.04 2116.82 169.583 2115.95 169.665C2115.49 168.905 2115.23 168.063 2115.17 167.141L2123.11 164.454C2123.93 165.051 2124.36 165.499 2124.42 165.797ZM2139.9 164.006C2143.13 164.006 2145.5 165.01 2147.02 167.018C2148.57 169 2149.35 171.768 2149.35 175.324C2149.35 178.852 2148.57 181.688 2147.02 183.833C2145.5 185.977 2143.12 187.049 2139.86 187.049C2136.6 187.049 2134.24 186.099 2132.78 184.199C2131.34 182.272 2130.62 179.395 2130.62 175.568C2130.62 167.86 2133.71 164.006 2139.9 164.006ZM2135.01 181.675C2135.37 182.652 2135.95 183.385 2136.77 183.873C2137.58 184.335 2138.56 184.565 2139.7 184.565C2140.86 184.565 2141.81 184.389 2142.55 184.036C2143.28 183.683 2143.84 183.263 2144.22 182.774C2144.62 182.285 2144.92 181.607 2145.11 180.738C2145.44 179.381 2145.6 177.644 2145.6 175.527C2145.6 169.529 2143.7 166.53 2139.9 166.53C2138.87 166.53 2137.97 166.72 2137.21 167.1C2136.48 167.48 2135.92 167.941 2135.54 168.484C2135.16 169.027 2134.87 169.719 2134.65 170.56C2134.32 171.863 2134.16 173.329 2134.16 174.957C2134.16 176.586 2134.21 177.875 2134.32 178.825C2134.43 179.748 2134.66 180.698 2135.01 181.675Z" fill="black"/>
<path d="M2314.07 165.797C2314.07 165.797 2313.91 171.782 2313.58 183.751L2317.24 184.077C2317.24 184.837 2317.01 185.651 2316.55 186.52H2305.85L2305.76 185.135C2306.69 184.864 2308.3 184.525 2310.61 184.118C2310.55 182.326 2310.49 179.653 2310.41 176.097C2310.32 172.515 2310.26 169.828 2310.2 168.036C2308 169.04 2306.47 169.583 2305.6 169.665C2305.14 168.905 2304.88 168.063 2304.83 167.141L2312.77 164.454C2313.58 165.051 2314.01 165.499 2314.07 165.797ZM2328.74 165.797C2328.74 165.797 2328.58 171.782 2328.25 183.751L2331.92 184.077C2331.92 184.837 2331.68 185.651 2331.22 186.52H2320.52L2320.43 185.135C2321.36 184.864 2322.97 184.525 2325.28 184.118C2325.23 182.326 2325.16 179.653 2325.08 176.097C2324.99 172.515 2324.93 169.828 2324.87 168.036C2322.67 169.04 2321.14 169.583 2320.27 169.665C2319.81 168.905 2319.55 168.063 2319.5 167.141L2327.44 164.454C2328.25 165.051 2328.69 165.499 2328.74 165.797Z" fill="black"/>
<path d="M2503.67 165.797C2503.67 165.797 2503.51 171.782 2503.18 183.751L2506.84 184.077C2506.84 184.837 2506.61 185.651 2506.15 186.52H2495.45L2495.36 185.135C2496.29 184.864 2497.9 184.525 2500.21 184.118C2500.15 182.326 2500.09 179.653 2500 176.097C2499.92 172.515 2499.86 169.828 2499.8 168.036C2497.6 169.04 2496.07 169.583 2495.2 169.665C2494.74 168.905 2494.48 168.063 2494.43 167.141L2502.37 164.454C2503.18 165.051 2503.61 165.499 2503.67 165.797ZM2522.04 180.25C2522.23 180.223 2522.47 180.209 2522.74 180.209C2523.23 180.209 2523.7 180.277 2524.16 180.413C2524.49 182.041 2524.65 184.077 2524.65 186.52H2510.4C2510.08 185.95 2509.91 185.447 2509.91 185.013C2509.91 184.552 2509.93 184.267 2509.95 184.158C2515.57 178.811 2518.6 175.907 2519.03 175.446C2519.47 174.957 2519.9 174.238 2520.33 173.288C2520.8 172.338 2521.03 171.388 2521.03 170.438C2521.03 169.461 2520.65 168.566 2519.89 167.751C2519.15 166.937 2518.03 166.53 2516.51 166.53C2515.67 166.53 2514.95 166.611 2514.35 166.774L2513.37 171.782C2513.1 171.809 2512.8 171.822 2512.48 171.822C2512.15 171.822 2511.66 171.768 2511.01 171.66C2510.58 170.493 2510.35 168.878 2510.32 166.815C2511 166.163 2511.96 165.553 2513.21 164.983C2514.49 164.386 2515.69 164.087 2516.83 164.087C2519.22 164.087 2521.14 164.698 2522.57 165.919C2524.04 167.113 2524.77 168.43 2524.77 169.868C2524.77 171.714 2524.38 173.315 2523.59 174.672C2522.83 176.029 2521.56 177.468 2519.76 178.988L2514.31 183.629L2514.43 184.118L2521.56 184.077C2521.69 182.231 2521.85 180.956 2522.04 180.25Z" fill="black"/>
<path d="M2687.46 165.797C2687.46 165.797 2687.3 171.782 2686.97 183.751L2690.64 184.077C2690.64 184.837 2690.41 185.651 2689.95 186.52H2679.24L2679.16 185.135C2680.08 184.864 2681.69 184.525 2684 184.118C2683.95 182.326 2683.88 179.653 2683.8 176.097C2683.72 172.515 2683.65 169.828 2683.59 168.036C2681.4 169.04 2679.86 169.583 2678.99 169.665C2678.53 168.905 2678.28 168.063 2678.22 167.141L2686.16 164.454C2686.97 165.051 2687.41 165.499 2687.46 165.797ZM2704.54 170.764C2704.54 167.86 2702.88 166.408 2699.57 166.408C2699.03 166.408 2698.4 166.503 2697.7 166.693L2696.72 171.741C2695.66 171.741 2694.87 171.7 2694.36 171.619C2693.9 170.262 2693.67 168.647 2693.67 166.774C2694.24 166.123 2695.17 165.512 2696.47 164.942C2697.8 164.345 2698.96 164.046 2699.93 164.046C2702.35 164.046 2704.33 164.657 2705.88 165.879C2707.45 167.073 2708.24 168.511 2708.24 170.194C2708.24 173.125 2706.5 175.337 2703.03 176.83C2704.68 176.83 2706.15 177.346 2707.43 178.377C2708.73 179.408 2709.38 180.888 2709.38 182.815C2709.38 184.742 2708.81 186.425 2707.67 187.863C2706.53 189.329 2705.2 190.387 2703.68 191.039C2702.19 191.717 2700.53 192.056 2698.71 192.056C2696.92 192.056 2695.04 191.717 2693.05 191.039C2693.11 190.007 2693.27 189.288 2693.54 188.881C2693.62 188.881 2693.88 188.935 2694.32 189.044C2694.75 189.152 2695.13 189.234 2695.46 189.288C2696.38 189.451 2697.18 189.532 2697.86 189.532C2698.54 189.532 2699.01 189.519 2699.28 189.492C2699.58 189.464 2700.03 189.397 2700.63 189.288C2701.25 189.179 2701.82 188.989 2702.34 188.718C2702.88 188.447 2703.41 188.121 2703.92 187.741C2705.06 186.845 2705.63 185.556 2705.63 183.873C2705.63 182.163 2705.11 180.888 2704.05 180.046C2703.02 179.205 2701.6 178.784 2699.81 178.784C2699.38 178.784 2698.58 178.839 2697.41 178.947C2697.3 178.811 2697.25 178.499 2697.25 178.011C2697.25 177.495 2697.29 177.006 2697.37 176.545L2699.16 176.301C2700.63 176.111 2701.89 175.514 2702.95 174.509C2704.01 173.478 2704.54 172.23 2704.54 170.764Z" fill="black"/>
<path d="M2877.25 165.797C2877.25 165.797 2877.09 171.782 2876.76 183.751L2880.43 184.077C2880.43 184.837 2880.2 185.651 2879.74 186.52H2869.03L2868.95 185.135C2869.87 184.864 2871.49 184.525 2873.79 184.118C2873.74 182.326 2873.67 179.653 2873.59 176.097C2873.51 172.515 2873.44 169.828 2873.39 168.036C2871.19 169.04 2869.65 169.583 2868.79 169.665C2868.32 168.905 2868.07 168.063 2868.01 167.141L2875.95 164.454C2876.76 165.051 2877.2 165.499 2877.25 165.797ZM2895.06 182.489L2894.65 167.751L2885.74 182.57C2889.86 182.516 2892.97 182.489 2895.06 182.489ZM2898.52 164.535L2898.11 182.489C2899.12 182.489 2900.6 182.516 2902.55 182.57C2902.55 183.71 2902.41 184.538 2902.14 185.054H2898.07L2897.79 191.853C2897.38 191.934 2896.97 191.975 2896.57 191.975C2896.16 191.975 2895.78 191.921 2895.43 191.812L2895.1 185.054H2882.76C2882.44 184.592 2882.28 184.118 2882.28 183.629C2882.28 183.113 2882.29 182.842 2882.32 182.815L2893.15 164.535H2898.52Z" fill="black"/>
<path d="M3068.41 165.797C3068.41 165.797 3068.24 171.782 3067.92 183.751L3071.58 184.077C3071.58 184.837 3071.35 185.651 3070.89 186.52H3060.18L3060.1 185.135C3061.02 184.864 3062.64 184.525 3064.95 184.118C3064.89 182.326 3064.82 179.653 3064.74 176.097C3064.66 172.515 3064.59 169.828 3064.54 168.036C3062.34 169.04 3060.81 169.583 3059.94 169.665C3059.48 168.905 3059.22 168.063 3059.17 167.141L3067.1 164.454C3067.92 165.051 3068.35 165.499 3068.41 165.797ZM3081.45 174.672C3084.14 174.672 3086.28 175.432 3087.88 176.952C3089.51 178.445 3090.32 180.508 3090.32 183.14C3090.32 185.746 3089.28 187.877 3087.19 189.532C3085.1 191.215 3082.75 192.056 3080.15 192.056C3077.57 192.056 3075.52 191.717 3074 191.039C3074 189.926 3074.18 189.207 3074.53 188.881C3075.72 189.315 3077.38 189.532 3079.5 189.532C3081.75 189.532 3083.48 189.044 3084.71 188.067C3085.22 187.632 3085.67 187.008 3086.05 186.194C3086.43 185.352 3086.62 184.375 3086.62 183.263C3086.62 181.363 3086.16 179.883 3085.24 178.825C3084.31 177.739 3083 177.196 3081.29 177.196C3079.98 177.196 3078.91 177.305 3078.07 177.522C3077.26 177.712 3076.81 177.807 3076.73 177.807C3076.16 177.481 3075.71 177.088 3075.38 176.626L3074.94 164.535H3088.78C3088.78 166.896 3088.61 168.932 3088.29 170.642C3087.83 170.75 3087.12 170.805 3086.17 170.805C3086.01 170.153 3085.85 168.878 3085.68 166.978H3078.6L3078.48 175.079C3079.29 174.808 3080.28 174.672 3081.45 174.672Z" fill="black"/>
<path d="M235.675 86.6704V155.216" stroke="black" stroke-width="2.91896"/>
<path d="M254.648 86.6704V131.949" stroke="black" stroke-width="1.45948"/>
<path d="M273.621 86.6704V131.949" stroke="black" stroke-width="1.45948"/>
<path d="M292.595 86.6704V131.949" stroke="black" stroke-width="1.45948"/>
<path d="M311.567 86.6704V131.949" stroke="black" stroke-width="1.45948"/>
<path d="M330.541 86.6704V143.512" stroke="black" stroke-width="2.91896"/>
<path d="M349.514 86.6704V131.949" stroke="black" stroke-width="1.45948"/>
<path d="M368.487 86.6704V131.949" stroke="black" stroke-width="1.45948"/>
<path d="M387.461 86.6704V131.949" stroke="black" stroke-width="1.45948"/>
<path d="M406.434 86.6704V131.949" stroke="black" stroke-width="1.45948"/>
<path d="M425.407 86.6704V155.216" stroke="black" stroke-width="2.91896"/>
<path d="M425.407 86.6704V155.216" stroke="black" stroke-width="2.91896"/>
<path d="M444.381 86.6704V131.949" stroke="black" stroke-width="1.45948"/>
<path d="M463.354 86.6704V131.949" stroke="black" stroke-width="1.45948"/>
<path d="M482.327 86.6704V131.949" stroke="black" stroke-width="1.45948"/>
<path d="M501.3 86.6704V131.949" stroke="black" stroke-width="1.45948"/>
<path d="M520.273 86.6704V143.512" stroke="black" stroke-width="2.91896"/>
<path d="M539.246 86.6704V131.949" stroke="black" stroke-width="1.45948"/>
<path d="M558.22 86.6704V131.949" stroke="black" stroke-width="1.45948"/>
<path d="M577.193 86.6704V131.949" stroke="black" stroke-width="1.45948"/>
<path d="M596.166 86.6704V131.949" stroke="black" stroke-width="1.45948"/>
<path d="M615.14 86.6704V155.216" stroke="black" stroke-width="2.91896"/>
<path d="M615.139 86.6704V155.216" stroke="black" stroke-width="2.91896"/>
<path d="M634.112 86.6704V131.949" stroke="black" stroke-width="1.45948"/>
<path d="M653.085 86.6704V131.949" stroke="black" stroke-width="1.45948"/>
<path d="M672.059 86.6704V131.949" stroke="black" stroke-width="1.45948"/>
<path d="M691.031 86.6704V131.949" stroke="black" stroke-width="1.45948"/>
<path d="M710.005 86.6704V143.512" stroke="black" stroke-width="2.91896"/>
<path d="M728.978 86.6704V131.949" stroke="black" stroke-width="1.45948"/>
<path d="M747.951 86.6704V131.949" stroke="black" stroke-width="1.45948"/>
<path d="M766.925 86.6704V131.949" stroke="black" stroke-width="1.45948"/>
<path d="M785.897 86.6704V131.949" stroke="black" stroke-width="1.45948"/>
<path d="M804.871 86.6704V155.216" stroke="black" stroke-width="2.91896"/>
<path d="M804.871 86.6704V155.216" stroke="black" stroke-width="2.91896"/>
<path d="M823.845 86.6704V131.949" stroke="black" stroke-width="1.45948"/>
<path d="M842.817 86.6704V131.949" stroke="black" stroke-width="1.45948"/>
<path d="M861.791 86.6704V131.949" stroke="black" stroke-width="1.45948"/>
<path d="M880.764 86.6704V131.949" stroke="black" stroke-width="1.45948"/>
<path d="M899.737 86.6704V143.512" stroke="black" stroke-width="2.91896"/>
<path d="M918.71 86.6704V131.949" stroke="black" stroke-width="1.45948"/>
<path d="M937.684 86.6704V131.949" stroke="black" stroke-width="1.45948"/>
<path d="M956.657 86.6704V131.949" stroke="black" stroke-width="1.45948"/>
<path d="M975.63 86.6704V131.949" stroke="black" stroke-width="1.45948"/>
<path d="M994.604 86.6704V155.216" stroke="black" stroke-width="2.91896"/>
<path d="M994.604 86.6704V155.216" stroke="black" stroke-width="2.91896"/>
<path d="M1013.58 86.6704V131.949" stroke="black" stroke-width="1.45948"/>
<path d="M1032.55 86.6704V131.949" stroke="black" stroke-width="1.45948"/>
<path d="M1051.52 86.6704V131.949" stroke="black" stroke-width="1.45948"/>
<path d="M1070.5 86.6704V131.949" stroke="black" stroke-width="1.45948"/>
<path d="M1089.47 86.6704V143.512" stroke="black" stroke-width="2.91896"/>
<path d="M1108.44 86.6704V131.949" stroke="black" stroke-width="1.45948"/>
<path d="M1127.42 86.6704V131.949" stroke="black" stroke-width="1.45948"/>
<path d="M1146.39 86.6704V131.949" stroke="black" stroke-width="1.45948"/>
<path d="M1165.36 86.6704V131.949" stroke="black" stroke-width="1.45948"/>
<path d="M1184.34 86.6704V155.216" stroke="black" stroke-width="2.91896"/>
<path d="M1184.34 86.6704V155.216" stroke="black" stroke-width="2.91896"/>
<path d="M1203.31 86.6704V131.949" stroke="black" stroke-width="1.45948"/>
<path d="M1222.28 86.6704V131.949" stroke="black" stroke-width="1.45948"/>
<path d="M1241.26 86.6704V131.949" stroke="black" stroke-width="1.45948"/>
<path d="M1260.23 86.6704V131.949" stroke="black" stroke-width="1.45948"/>
<path d="M1279.2 86.6704V143.512" stroke="black" stroke-width="2.91896"/>
<path d="M1298.17 86.6704V131.949" stroke="black" stroke-width="1.45948"/>
<path d="M1317.15 86.6704V131.949" stroke="black" stroke-width="1.45948"/>
<path d="M1336.12 86.6704V131.949" stroke="black" stroke-width="1.45948"/>
<path d="M1355.09 86.6704V131.949" stroke="black" stroke-width="1.45948"/>
<path d="M1374.07 86.6704V155.216" stroke="black" stroke-width="2.91896"/>
<path d="M1374.07 86.6704V155.216" stroke="black" stroke-width="2.91896"/>
<path d="M1393.04 86.6704V131.949" stroke="black" stroke-width="1.45948"/>
<path d="M1412.01 86.6704V131.949" stroke="black" stroke-width="1.45948"/>
<path d="M1430.99 86.6704V131.949" stroke="black" stroke-width="1.45948"/>
<path d="M1449.96 86.6704V131.949" stroke="black" stroke-width="1.45948"/>
<path d="M1468.93 86.6704V143.512" stroke="black" stroke-width="2.91896"/>
<path d="M1487.91 86.6704V131.949" stroke="black" stroke-width="1.45948"/>
<path d="M1506.88 86.6704V131.949" stroke="black" stroke-width="1.45948"/>
<path d="M1525.85 86.6704V131.949" stroke="black" stroke-width="1.45948"/>
<path d="M1544.83 86.6704V131.949" stroke="black" stroke-width="1.45948"/>
<path d="M1563.8 86.6704V155.216" stroke="black" stroke-width="2.91896"/>
<path d="M1563.8 86.6704V155.216" stroke="black" stroke-width="2.91896"/>
<path d="M1582.77 86.6704V131.949" stroke="black" stroke-width="1.45948"/>
<path d="M1601.75 86.6704V131.949" stroke="black" stroke-width="1.45948"/>
<path d="M1620.72 86.6704V131.949" stroke="black" stroke-width="1.45948"/>
<path d="M1639.69 86.6704V131.949" stroke="black" stroke-width="1.45948"/>
<path d="M1658.67 86.6704V143.512" stroke="black" stroke-width="2.91896"/>
<path d="M1677.64 86.6704V131.949" stroke="black" stroke-width="1.45948"/>
<path d="M1696.61 86.6704V131.949" stroke="black" stroke-width="1.45948"/>
<path d="M1715.59 86.6704V131.949" stroke="black" stroke-width="1.45948"/>
<path d="M1734.56 86.6704V131.949" stroke="black" stroke-width="1.45948"/>
<path d="M1753.53 86.6704V155.216" stroke="black" stroke-width="2.91896"/>
<path d="M1753.53 86.6704V155.216" stroke="black" stroke-width="2.91896"/>
<path d="M1772.51 86.6704V131.949" stroke="black" stroke-width="1.45948"/>
<path d="M1791.48 86.6704V131.949" stroke="black" stroke-width="1.45948"/>
<path d="M1810.45 86.6704V131.949" stroke="black" stroke-width="1.45948"/>
<path d="M1829.42 86.6704V131.949" stroke="black" stroke-width="1.45948"/>
<path d="M1848.4 86.6704V143.512" stroke="black" stroke-width="2.91896"/>
<path d="M1867.37 86.6704V131.949" stroke="black" stroke-width="1.45948"/>
<path d="M1886.34 86.6704V131.949" stroke="black" stroke-width="1.45948"/>
<path d="M1905.32 86.6704V131.949" stroke="black" stroke-width="1.45948"/>
<path d="M1924.29 86.6704V131.949" stroke="black" stroke-width="1.45948"/>
<path d="M1943.26 86.6704V155.216" stroke="black" stroke-width="2.91896"/>
<path d="M1943.26 86.6704V155.216" stroke="black" stroke-width="2.91896"/>
<path d="M1962.24 86.6704V131.949" stroke="black" stroke-width="1.45948"/>
<path d="M1981.21 86.6704V131.949" stroke="black" stroke-width="1.45948"/>
<path d="M2000.18 86.6704V131.949" stroke="black" stroke-width="1.45948"/>
<path d="M2019.16 86.6704V131.949" stroke="black" stroke-width="1.45948"/>
<path d="M2038.13 86.6704V143.512" stroke="black" stroke-width="2.91896"/>
<path d="M2057.1 86.6704V131.949" stroke="black" stroke-width="1.45948"/>
<path d="M2076.08 86.6704V131.949" stroke="black" stroke-width="1.45948"/>
<path d="M2095.05 86.6704V131.949" stroke="black" stroke-width="1.45948"/>
<path d="M2114.02 86.6704V131.949" stroke="black" stroke-width="1.45948"/>
<path d="M2133 86.6704V155.216" stroke="black" stroke-width="2.91896"/>
<path d="M2133 86.6704V155.216" stroke="black" stroke-width="2.91896"/>
<path d="M2151.97 86.6704V131.949" stroke="black" stroke-width="1.45948"/>
<path d="M2170.94 86.6704V131.949" stroke="black" stroke-width="1.45948"/>
<path d="M2189.92 86.6704V131.949" stroke="black" stroke-width="1.45948"/>
<path d="M2208.89 86.6704V131.949" stroke="black" stroke-width="1.45948"/>
<path d="M2227.86 86.6704V143.512" stroke="black" stroke-width="2.91896"/>
<path d="M2246.83 86.6704V131.949" stroke="black" stroke-width="1.45948"/>
<path d="M2265.81 86.6704V131.949" stroke="black" stroke-width="1.45948"/>
<path d="M2284.78 86.6704V131.949" stroke="black" stroke-width="1.45948"/>
<path d="M2303.75 86.6704V131.949" stroke="black" stroke-width="1.45948"/>
<path d="M2322.73 86.6704V155.216" stroke="black" stroke-width="2.91896"/>
<path d="M2322.73 86.6704V155.216" stroke="black" stroke-width="2.91896"/>
<path d="M2341.7 86.6704V131.949" stroke="black" stroke-width="1.45948"/>
<path d="M2360.67 86.6704V131.949" stroke="black" stroke-width="1.45948"/>
<path d="M2379.65 86.6704V131.949" stroke="black" stroke-width="1.45948"/>
<path d="M2398.62 86.6704V131.949" stroke="black" stroke-width="1.45948"/>
<path d="M2417.59 86.6704V143.512" stroke="black" stroke-width="2.91896"/>
<path d="M2436.57 86.6704V131.949" stroke="black" stroke-width="1.45948"/>
<path d="M2455.54 86.6704V131.949" stroke="black" stroke-width="1.45948"/>
<path d="M2474.51 86.6704V131.949" stroke="black" stroke-width="1.45948"/>
<path d="M2493.49 86.6704V131.949" stroke="black" stroke-width="1.45948"/>
<path d="M2512.46 86.6704V155.216" stroke="black" stroke-width="2.91896"/>
<path d="M2512.46 86.6704V155.216" stroke="black" stroke-width="2.91896"/>
<path d="M2531.43 86.6704V131.949" stroke="black" stroke-width="1.45948"/>
<path d="M2550.41 86.6704V131.949" stroke="black" stroke-width="1.45948"/>
<path d="M2569.38 86.6704V131.949" stroke="black" stroke-width="1.45948"/>
<path d="M2588.35 86.6704V131.949" stroke="black" stroke-width="1.45948"/>
<path d="M2607.33 86.6704V143.512" stroke="black" stroke-width="2.91896"/>
<path d="M2626.3 86.6704V131.949" stroke="black" stroke-width="1.45948"/>
<path d="M2645.27 86.6704V131.949" stroke="black" stroke-width="1.45948"/>
<path d="M2664.25 86.6704V131.949" stroke="black" stroke-width="1.45948"/>
<path d="M2683.22 86.6704V131.949" stroke="black" stroke-width="1.45948"/>
<path d="M2702.19 86.6704V155.216" stroke="black" stroke-width="2.91896"/>
<path d="M2702.19 86.6704V155.216" stroke="black" stroke-width="2.91896"/>
<path d="M2721.17 86.6704V131.949" stroke="black" stroke-width="1.45948"/>
<path d="M2740.14 86.6704V131.949" stroke="black" stroke-width="1.45948"/>
<path d="M2759.11 86.6704V131.949" stroke="black" stroke-width="1.45948"/>
<path d="M2778.09 86.6704V131.949" stroke="black" stroke-width="1.45948"/>
<path d="M2797.06 86.6704V143.512" stroke="black" stroke-width="2.91896"/>
<path d="M2816.03 86.6704V131.949" stroke="black" stroke-width="1.45948"/>
<path d="M2835.01 86.6704V131.949" stroke="black" stroke-width="1.45948"/>
<path d="M2853.98 86.6704V131.949" stroke="black" stroke-width="1.45948"/>
<path d="M2872.95 86.6704V131.949" stroke="black" stroke-width="1.45948"/>
<path d="M2891.93 86.6704V155.216" stroke="black" stroke-width="2.91896"/>
<path d="M2891.92 86.6704V155.216" stroke="black" stroke-width="2.91896"/>
<path d="M2910.9 86.6704V131.949" stroke="black" stroke-width="1.45948"/>
<path d="M2929.87 86.6704V131.949" stroke="black" stroke-width="1.45948"/>
<path d="M2948.84 86.6704V131.949" stroke="black" stroke-width="1.45948"/>
<path d="M2967.82 86.6704V131.949" stroke="black" stroke-width="1.45948"/>
<path d="M2986.79 86.6704V143.512" stroke="black" stroke-width="2.91896"/>
<path d="M3005.76 86.6704V131.949" stroke="black" stroke-width="1.45948"/>
<path d="M3024.74 86.6704V131.949" stroke="black" stroke-width="1.45948"/>
<path d="M3043.71 86.6704V131.949" stroke="black" stroke-width="1.45948"/>
<path d="M3062.68 86.6704V131.949" stroke="black" stroke-width="1.45948"/>
<path d="M3081.66 86.6704V155.216" stroke="black" stroke-width="2.91896"/>
<path d="M3081.65 274.902L3081.65 206.357" stroke="black" stroke-width="2.91896"/>
<path d="M3062.68 274.902L3062.68 229.623" stroke="black" stroke-width="1.45948"/>
<path d="M3043.71 274.902L3043.71 229.623" stroke="black" stroke-width="1.45948"/>
<path d="M3024.73 274.902L3024.73 229.623" stroke="black" stroke-width="1.45948"/>
<path d="M3005.76 274.902L3005.76 229.623" stroke="black" stroke-width="1.45948"/>
<path d="M2986.79 274.902L2986.79 218.061" stroke="black" stroke-width="2.91896"/>
<path d="M2967.82 274.902L2967.82 229.623" stroke="black" stroke-width="1.45948"/>
<path d="M2948.84 274.902L2948.84 229.623" stroke="black" stroke-width="1.45948"/>
<path d="M2929.87 274.902L2929.87 229.623" stroke="black" stroke-width="1.45948"/>
<path d="M2910.9 274.902L2910.9 229.623" stroke="black" stroke-width="1.45948"/>
<path d="M2891.92 274.902L2891.92 206.357" stroke="black" stroke-width="2.91896"/>
<path d="M2891.92 274.902L2891.92 206.357" stroke="black" stroke-width="2.91896"/>
<path d="M2872.95 274.902L2872.95 229.623" stroke="black" stroke-width="1.45948"/>
<path d="M2853.98 274.902L2853.98 229.623" stroke="black" stroke-width="1.45948"/>
<path d="M2835 274.902L2835 229.623" stroke="black" stroke-width="1.45948"/>
<path d="M2816.03 274.902L2816.03 229.623" stroke="black" stroke-width="1.45948"/>
<path d="M2797.06 274.902L2797.06 218.061" stroke="black" stroke-width="2.91896"/>
<path d="M2778.08 274.902L2778.08 229.623" stroke="black" stroke-width="1.45948"/>
<path d="M2759.11 274.902L2759.11 229.623" stroke="black" stroke-width="1.45948"/>
<path d="M2740.14 274.902L2740.14 229.623" stroke="black" stroke-width="1.45948"/>
<path d="M2721.16 274.902L2721.16 229.623" stroke="black" stroke-width="1.45948"/>
<path d="M2702.19 274.902L2702.19 206.357" stroke="black" stroke-width="2.91896"/>
<path d="M2702.19 274.902L2702.19 206.357" stroke="black" stroke-width="2.91896"/>
<path d="M2683.22 274.902L2683.22 229.623" stroke="black" stroke-width="1.45948"/>
<path d="M2664.24 274.902L2664.24 229.623" stroke="black" stroke-width="1.45948"/>
<path d="M2645.27 274.902L2645.27 229.623" stroke="black" stroke-width="1.45948"/>
<path d="M2626.3 274.902L2626.3 229.623" stroke="black" stroke-width="1.45948"/>
<path d="M2607.32 274.902L2607.32 218.061" stroke="black" stroke-width="2.91896"/>
<path d="M2588.35 274.902L2588.35 229.623" stroke="black" stroke-width="1.45948"/>
<path d="M2569.38 274.902L2569.38 229.623" stroke="black" stroke-width="1.45948"/>
<path d="M2550.4 274.902L2550.4 229.623" stroke="black" stroke-width="1.45948"/>
<path d="M2531.43 274.902L2531.43 229.623" stroke="black" stroke-width="1.45948"/>
<path d="M2512.46 274.902L2512.46 206.357" stroke="black" stroke-width="2.91896"/>
<path d="M2512.46 274.902L2512.46 206.357" stroke="black" stroke-width="2.91896"/>
<path d="M2493.48 274.902L2493.48 229.623" stroke="black" stroke-width="1.45948"/>
<path d="M2474.51 274.902L2474.51 229.623" stroke="black" stroke-width="1.45948"/>
<path d="M2455.54 274.902L2455.54 229.623" stroke="black" stroke-width="1.45948"/>
<path d="M2436.57 274.902L2436.57 229.623" stroke="black" stroke-width="1.45948"/>
<path d="M2417.59 274.902L2417.59 218.061" stroke="black" stroke-width="2.91896"/>
<path d="M2398.62 274.902L2398.62 229.623" stroke="black" stroke-width="1.45948"/>
<path d="M2379.65 274.902L2379.65 229.623" stroke="black" stroke-width="1.45948"/>
<path d="M2360.67 274.902L2360.67 229.623" stroke="black" stroke-width="1.45948"/>
<path d="M2341.7 274.902L2341.7 229.623" stroke="black" stroke-width="1.45948"/>
<path d="M2322.73 274.902L2322.73 206.357" stroke="black" stroke-width="2.91896"/>
<path d="M2322.73 274.902L2322.73 206.357" stroke="black" stroke-width="2.91896"/>
<path d="M2303.75 274.902L2303.75 229.623" stroke="black" stroke-width="1.45948"/>
<path d="M2284.78 274.902L2284.78 229.623" stroke="black" stroke-width="1.45948"/>
<path d="M2265.81 274.902L2265.81 229.623" stroke="black" stroke-width="1.45948"/>
<path d="M2246.83 274.902L2246.83 229.623" stroke="black" stroke-width="1.45948"/>
<path d="M2227.86 274.902L2227.86 218.061" stroke="black" stroke-width="2.91896"/>
<path d="M2208.89 274.902L2208.89 229.623" stroke="black" stroke-width="1.45948"/>
<path d="M2189.91 274.902L2189.91 229.623" stroke="black" stroke-width="1.45948"/>
<path d="M2170.94 274.902L2170.94 229.623" stroke="black" stroke-width="1.45948"/>
<path d="M2151.97 274.902L2151.97 229.623" stroke="black" stroke-width="1.45948"/>
<path d="M2132.99 274.902L2132.99 206.357" stroke="black" stroke-width="2.91896"/>
<path d="M2132.99 274.902L2132.99 206.357" stroke="black" stroke-width="2.91896"/>
<path d="M2114.02 274.902L2114.02 229.623" stroke="black" stroke-width="1.45948"/>
<path d="M2095.05 274.902L2095.05 229.623" stroke="black" stroke-width="1.45948"/>
<path d="M2076.07 274.902L2076.07 229.623" stroke="black" stroke-width="1.45948"/>
<path d="M2057.1 274.902L2057.1 229.623" stroke="black" stroke-width="1.45948"/>
<path d="M2038.13 274.902L2038.13 218.061" stroke="black" stroke-width="2.91896"/>
<path d="M2019.15 274.902L2019.15 229.623" stroke="black" stroke-width="1.45948"/>
<path d="M2000.18 274.902L2000.18 229.623" stroke="black" stroke-width="1.45948"/>
<path d="M1981.21 274.902L1981.21 229.623" stroke="black" stroke-width="1.45948"/>
<path d="M1962.23 274.902L1962.23 229.623" stroke="black" stroke-width="1.45948"/>
<path d="M1943.26 274.902L1943.26 206.357" stroke="black" stroke-width="2.91896"/>
<path d="M1943.26 274.902L1943.26 206.357" stroke="black" stroke-width="2.91896"/>
<path d="M1924.29 274.902L1924.29 229.623" stroke="black" stroke-width="1.45948"/>
<path d="M1905.32 274.902L1905.32 229.623" stroke="black" stroke-width="1.45948"/>
<path d="M1886.34 274.902L1886.34 229.623" stroke="black" stroke-width="1.45948"/>
<path d="M1867.37 274.902L1867.37 229.623" stroke="black" stroke-width="1.45948"/>
<path d="M1848.4 274.902L1848.4 218.061" stroke="black" stroke-width="2.91896"/>
<path d="M1829.42 274.902L1829.42 229.623" stroke="black" stroke-width="1.45948"/>
<path d="M1810.45 274.902L1810.45 229.623" stroke="black" stroke-width="1.45948"/>
<path d="M1791.48 274.902L1791.48 229.623" stroke="black" stroke-width="1.45948"/>
<path d="M1772.5 274.902L1772.5 229.623" stroke="black" stroke-width="1.45948"/>
<path d="M1753.53 274.902L1753.53 206.357" stroke="black" stroke-width="2.91896"/>
<path d="M1753.53 274.902L1753.53 206.357" stroke="black" stroke-width="2.91896"/>
<path d="M1734.56 274.902L1734.56 229.623" stroke="black" stroke-width="1.45948"/>
<path d="M1715.58 274.902L1715.58 229.623" stroke="black" stroke-width="1.45948"/>
<path d="M1696.61 274.902L1696.61 229.623" stroke="black" stroke-width="1.45948"/>
<path d="M1677.64 274.902L1677.64 229.623" stroke="black" stroke-width="1.45948"/>
<path d="M1658.66 274.902L1658.66 218.061" stroke="black" stroke-width="2.91896"/>
<path d="M1639.69 274.902L1639.69 229.623" stroke="black" stroke-width="1.45948"/>
<path d="M1620.72 274.902L1620.72 229.623" stroke="black" stroke-width="1.45948"/>
<path d="M1601.74 274.902L1601.74 229.623" stroke="black" stroke-width="1.45948"/>
<path d="M1582.77 274.902L1582.77 229.623" stroke="black" stroke-width="1.45948"/>
<path d="M1563.8 274.902L1563.8 206.357" stroke="black" stroke-width="2.91896"/>
<path d="M1563.8 274.902L1563.8 206.357" stroke="black" stroke-width="2.91896"/>
<path d="M1544.82 274.902L1544.82 229.623" stroke="black" stroke-width="1.45948"/>
<path d="M1525.85 274.902L1525.85 229.623" stroke="black" stroke-width="1.45948"/>
<path d="M1506.88 274.902L1506.88 229.623" stroke="black" stroke-width="1.45948"/>
<path d="M1487.9 274.902L1487.9 229.623" stroke="black" stroke-width="1.45948"/>
<path d="M1468.93 274.902L1468.93 218.061" stroke="black" stroke-width="2.91896"/>
<path d="M1449.96 274.902L1449.96 229.623" stroke="black" stroke-width="1.45948"/>
<path d="M1430.98 274.902L1430.98 229.623" stroke="black" stroke-width="1.45948"/>
<path d="M1412.01 274.902L1412.01 229.623" stroke="black" stroke-width="1.45948"/>
<path d="M1393.04 274.902L1393.04 229.623" stroke="black" stroke-width="1.45948"/>
<path d="M1374.06 274.902L1374.06 206.357" stroke="black" stroke-width="2.91896"/>
<path d="M1374.06 274.902L1374.06 206.357" stroke="black" stroke-width="2.91896"/>
<path d="M1355.09 274.902L1355.09 229.623" stroke="black" stroke-width="1.45948"/>
<path d="M1336.12 274.902L1336.12 229.623" stroke="black" stroke-width="1.45948"/>
<path d="M1317.14 274.902L1317.14 229.623" stroke="black" stroke-width="1.45948"/>
<path d="M1298.17 274.902L1298.17 229.623" stroke="black" stroke-width="1.45948"/>
<path d="M1279.2 274.902L1279.2 218.061" stroke="black" stroke-width="2.91896"/>
<path d="M1260.23 274.902L1260.23 229.623" stroke="black" stroke-width="1.45948"/>
<path d="M1241.25 274.902L1241.25 229.623" stroke="black" stroke-width="1.45948"/>
<path d="M1222.28 274.902L1222.28 229.623" stroke="black" stroke-width="1.45948"/>
<path d="M1203.31 274.902L1203.31 229.623" stroke="black" stroke-width="1.45948"/>
<path d="M1184.33 274.902L1184.33 206.357" stroke="black" stroke-width="2.91896"/>
<path d="M1184.33 274.902L1184.33 206.357" stroke="black" stroke-width="2.91896"/>
<path d="M1165.36 274.902L1165.36 229.623" stroke="black" stroke-width="1.45948"/>
<path d="M1146.39 274.902L1146.39 229.623" stroke="black" stroke-width="1.45948"/>
<path d="M1127.41 274.902L1127.41 229.623" stroke="black" stroke-width="1.45948"/>
<path d="M1108.44 274.902L1108.44 229.623" stroke="black" stroke-width="1.45948"/>
<path d="M1089.47 274.902L1089.47 218.061" stroke="black" stroke-width="2.91896"/>
<path d="M1070.49 274.902L1070.49 229.623" stroke="black" stroke-width="1.45948"/>
<path d="M1051.52 274.902L1051.52 229.623" stroke="black" stroke-width="1.45948"/>
<path d="M1032.55 274.902L1032.55 229.623" stroke="black" stroke-width="1.45948"/>
<path d="M1013.57 274.902L1013.57 229.623" stroke="black" stroke-width="1.45948"/>
<path d="M994.601 274.902L994.601 206.357" stroke="black" stroke-width="2.91896"/>
<path d="M994.601 274.902L994.601 206.357" stroke="black" stroke-width="2.91896"/>
<path d="M975.627 274.902L975.627 229.623" stroke="black" stroke-width="1.45948"/>
<path d="M956.654 274.902L956.654 229.623" stroke="black" stroke-width="1.45948"/>
<path d="M937.681 274.902L937.681 229.623" stroke="black" stroke-width="1.45948"/>
<path d="M918.708 274.902L918.708 229.623" stroke="black" stroke-width="1.45948"/>
<path d="M899.734 274.902L899.734 218.061" stroke="black" stroke-width="2.91896"/>
<path d="M880.762 274.902L880.762 229.623" stroke="black" stroke-width="1.45948"/>
<path d="M861.788 274.902L861.788 229.623" stroke="black" stroke-width="1.45948"/>
<path d="M842.814 274.902L842.814 229.623" stroke="black" stroke-width="1.45948"/>
<path d="M823.842 274.902L823.842 229.623" stroke="black" stroke-width="1.45948"/>
<path d="M804.868 274.902L804.868 206.357" stroke="black" stroke-width="2.91896"/>
<path d="M804.868 274.902L804.868 206.357" stroke="black" stroke-width="2.91896"/>
<path d="M785.895 274.902L785.895 229.623" stroke="black" stroke-width="1.45948"/>
<path d="M766.922 274.902L766.922 229.623" stroke="black" stroke-width="1.45948"/>
<path d="M747.948 274.902L747.948 229.623" stroke="black" stroke-width="1.45948"/>
<path d="M728.976 274.902L728.976 229.623" stroke="black" stroke-width="1.45948"/>
<path d="M710.002 274.902L710.002 218.061" stroke="black" stroke-width="2.91896"/>
<path d="M691.029 274.902L691.029 229.623" stroke="black" stroke-width="1.45948"/>
<path d="M672.056 274.902L672.056 229.623" stroke="black" stroke-width="1.45948"/>
<path d="M653.082 274.902L653.082 229.623" stroke="black" stroke-width="1.45948"/>
<path d="M634.109 274.902L634.109 229.623" stroke="black" stroke-width="1.45948"/>
<path d="M615.136 274.902L615.136 206.357" stroke="black" stroke-width="2.91896"/>
<path d="M615.137 274.902L615.137 206.357" stroke="black" stroke-width="2.91896"/>
<path d="M596.163 274.902L596.163 229.623" stroke="black" stroke-width="1.45948"/>
<path d="M577.19 274.902L577.19 229.623" stroke="black" stroke-width="1.45948"/>
<path d="M558.217 274.902L558.217 229.623" stroke="black" stroke-width="1.45948"/>
<path d="M539.244 274.902L539.244 229.623" stroke="black" stroke-width="1.45948"/>
<path d="M520.271 274.902L520.271 218.061" stroke="black" stroke-width="2.91896"/>
<path d="M501.298 274.902L501.298 229.623" stroke="black" stroke-width="1.45948"/>
<path d="M482.324 274.902L482.324 229.623" stroke="black" stroke-width="1.45948"/>
<path d="M463.351 274.902L463.351 229.623" stroke="black" stroke-width="1.45948"/>
<path d="M444.378 274.902L444.378 229.623" stroke="black" stroke-width="1.45948"/>
<path d="M425.404 274.902L425.404 206.357" stroke="black" stroke-width="2.91896"/>
<path d="M425.404 274.902L425.404 206.357" stroke="black" stroke-width="2.91896"/>
<path d="M406.431 274.902L406.431 229.623" stroke="black" stroke-width="1.45948"/>
<path d="M387.458 274.902L387.458 229.623" stroke="black" stroke-width="1.45948"/>
<path d="M368.484 274.902L368.484 229.623" stroke="black" stroke-width="1.45948"/>
<path d="M349.512 274.902L349.512 229.623" stroke="black" stroke-width="1.45948"/>
<path d="M330.538 274.902L330.538 218.061" stroke="black" stroke-width="2.91896"/>
<path d="M311.565 274.902L311.565 229.623" stroke="black" stroke-width="1.45948"/>
<path d="M292.592 274.902L292.592 229.623" stroke="black" stroke-width="1.45948"/>
<path d="M273.618 274.902L273.618 229.623" stroke="black" stroke-width="1.45948"/>
<path d="M254.646 274.902L254.646 229.623" stroke="black" stroke-width="1.45948"/>
<path d="M235.672 274.902L235.672 206.357" stroke="black" stroke-width="2.91896"/>
<path d="M208.187 487.714H152.165V604.473" stroke="black" stroke-width="1.45948"/>
</g>
<defs>
<clipPath id="clip0_64_1707">
<rect width="3392.76" height="659.073" fill="white" transform="translate(0.438477 0.932129)"/>
</clipPath>
</defs>
</svg>
