<svg width="2326" height="735" viewBox="0 0 2326 735" fill="none" xmlns="http://www.w3.org/2000/svg">
<g clip-path="url(#clip0_34_1014)">
<path d="M2325.06 251.07H595.125V270.628H2325.06V251.07Z" fill="#9BE1FF" stroke="black"/>
<path d="M85.2986 151.814L401.738 155.452C402.286 155.458 402.727 155.904 402.727 156.452V211.558C402.727 212.111 402.279 212.558 401.727 212.558H12.1104C11.5581 212.558 11.1104 212.111 11.1104 211.558V151.968C11.1104 151.859 11.1283 151.75 11.1635 151.647L50.5632 35.6368C50.6125 35.4916 50.6946 35.3597 50.803 35.2513L82.6029 3.45171C83.2329 2.82176 84.31 3.26792 84.31 4.15882V150.815C84.31 151.362 84.7508 151.808 85.2986 151.814Z" fill="#9BE1FF" stroke="black" stroke-width="2"/>
<path d="M84.2424 83.4048H66.1503V17.9774" stroke="black"/>
</g>
<defs>
<clipPath id="clip0_34_1014">
<rect width="2324.64" height="734.208" fill="white" transform="translate(0.413086 0.663574)"/>
</clipPath>
</defs>
</svg>
