<svg width="3394" height="661" viewBox="0 0 3394 661" fill="none" xmlns="http://www.w3.org/2000/svg">
<g clip-path="url(#clip0_64_1707)">
<path d="M457.252 351.364L420.439 354.898C419.981 354.942 419.597 355.157 419.358 355.55C412.821 366.297 317.678 522.873 293.089 572.088C270.363 617.578 219.094 644.764 208.323 650.088C207.371 650.559 206.314 649.846 206.314 648.784V409.459V251.613C206.314 250.807 206.968 250.154 207.774 250.154H669.021C669.827 250.154 670.481 250.807 670.481 251.613V380.141C670.481 380.416 670.411 380.677 670.256 380.904C665.31 388.116 643.21 401.89 591.87 401.89C540.034 401.89 481.497 368.591 458.241 351.63C457.952 351.418 457.609 351.33 457.252 351.364Z" fill="#9BE1FF" stroke="black" stroke-width="2.91896"/>
<path d="M208.189 487.714H263.155V613.036" stroke="black" stroke-width="1.45948"/>
<path d="M669.395 0.932129H212.54C211.734 0.932129 211.08 1.58556 211.08 2.39161V109.028C211.08 109.834 211.733 110.487 212.54 110.487H669.395C670.201 110.487 670.854 109.834 670.854 109.028V2.39161C670.854 1.58556 670.201 0.932129 669.395 0.932129Z" fill="#9BE1FF" stroke="black" stroke-width="2.91896"/>
<path d="M235.672 250.132V318.677" stroke="black" stroke-width="2.91896"/>
<path d="M252.602 250.132V295.41" stroke="black" stroke-width="1.45948"/>
<path d="M269.532 250.132V295.41" stroke="black" stroke-width="1.45948"/>
<path d="M286.462 250.132V295.41" stroke="black" stroke-width="1.45948"/>
<path d="M303.392 250.132V295.41" stroke="black" stroke-width="1.45948"/>
<path d="M320.321 250.132V306.973" stroke="black" stroke-width="2.91896"/>
<path d="M337.252 250.132V295.41" stroke="black" stroke-width="1.45948"/>
<path d="M354.182 250.132V295.41" stroke="black" stroke-width="1.45948"/>
<path d="M371.111 250.132V295.41" stroke="black" stroke-width="1.45948"/>
<path d="M388.041 250.132V295.41" stroke="black" stroke-width="1.45948"/>
<path d="M404.972 250.132V318.677" stroke="black" stroke-width="2.91896"/>
<path d="M404.971 110.487L404.971 41.9421" stroke="black" stroke-width="2.91896"/>
<path d="M388.041 110.487L388.041 65.2089" stroke="black" stroke-width="1.45948"/>
<path d="M371.11 110.487L371.11 65.2089" stroke="black" stroke-width="1.45948"/>
<path d="M354.181 110.487L354.181 65.2089" stroke="black" stroke-width="1.45948"/>
<path d="M337.251 110.487L337.251 65.2089" stroke="black" stroke-width="1.45948"/>
<path d="M320.321 110.487L320.321 53.6462" stroke="black" stroke-width="2.91896"/>
<path d="M303.391 110.487L303.391 65.2089" stroke="black" stroke-width="1.45948"/>
<path d="M286.461 110.487L286.461 65.2089" stroke="black" stroke-width="1.45948"/>
<path d="M269.531 110.487L269.531 65.2089" stroke="black" stroke-width="1.45948"/>
<path d="M252.602 110.487L252.602 65.2089" stroke="black" stroke-width="1.45948"/>
<path d="M235.671 110.487L235.671 41.9421" stroke="black" stroke-width="2.91896"/>
</g>
<defs>
<clipPath id="clip0_64_1707">
<rect width="3392.76" height="659.073" fill="white" transform="translate(0.438477 0.932129)"/>
</clipPath>
</defs>
</svg>
