<svg width="2326" height="735" viewBox="0 0 2326 735" fill="none" xmlns="http://www.w3.org/2000/svg">
<g clip-path="url(#clip0_34_1014)">
<path d="M313.412 377.956L288.386 380.358C287.969 380.398 287.64 380.619 287.534 381.025C283.888 394.95 217.898 646.607 200.932 680.565C185.36 711.734 150.232 730.361 142.852 734.009C142.2 734.332 141.476 733.843 141.476 733.115V417.761V309.608C141.476 309.056 141.924 308.608 142.476 308.608H458.512C459.064 308.608 459.512 309.056 459.512 309.608V397.673C459.512 397.861 459.464 398.04 459.358 398.195C455.969 403.137 440.826 412.574 405.65 412.574C370.133 412.574 330.025 389.759 314.09 378.137C313.892 377.992 313.657 377.932 313.412 377.956Z" fill="#9BE1FF" stroke="black" stroke-width="2"/>
<path d="M289.987 114.692V156.266C289.987 156.819 290.434 157.266 290.987 157.266H311.221C311.774 157.266 312.221 156.819 312.221 156.266V114.692C312.221 114.139 312.669 113.692 313.221 113.692H333.019C333.572 113.692 334.019 113.244 334.019 112.692V78.5605C334.019 78.0083 333.572 77.5605 333.019 77.5605H302.256H271.492C270.94 77.5605 270.492 78.0083 270.492 78.5605V112.692C270.492 113.244 270.94 113.692 271.492 113.692H288.987C289.539 113.692 289.987 114.139 289.987 114.692Z" fill="#9BE1FF" stroke="black" stroke-width="2"/>
<path d="M458.769 137.848H145.742C145.19 137.848 144.742 138.295 144.742 138.848V211.912C144.742 212.464 145.19 212.912 145.742 212.912H458.769C459.321 212.912 459.769 212.464 459.769 211.912V138.848C459.769 138.295 459.321 137.848 458.769 137.848Z" fill="#9BE1FF" stroke="black" stroke-width="2"/>
<path d="M161.592 308.593V355.559" stroke="black" stroke-width="2"/>
<path d="M173.192 308.593V339.617" stroke="black"/>
<path d="M184.792 308.593V339.617" stroke="black"/>
<path d="M196.392 308.593V339.617" stroke="black"/>
<path d="M207.992 308.593V339.617" stroke="black"/>
<path d="M219.592 308.593V347.539" stroke="black" stroke-width="2"/>
<path d="M231.192 308.593V339.617" stroke="black"/>
<path d="M242.792 308.593V339.617" stroke="black"/>
<path d="M254.392 308.593V339.617" stroke="black"/>
<path d="M265.992 308.593V339.617" stroke="black"/>
<path d="M277.592 308.593V355.559" stroke="black" stroke-width="2"/>
<path d="M142.756 609.464H180.418V707.207" stroke="black"/>
</g>
<defs>
<clipPath id="clip0_34_1014">
<rect width="2324.64" height="734.208" fill="white" transform="translate(0.413086 0.663574)"/>
</clipPath>
</defs>
</svg>
