<svg width="3394" height="1072" viewBox="0 0 3394 1072" fill="none" xmlns="http://www.w3.org/2000/svg">
<path d="M804.014 550.654L767.201 554.188C766.743 554.232 766.358 554.447 766.119 554.84C759.582 565.587 664.439 722.163 639.851 771.378C617.124 816.868 565.856 844.054 555.085 849.378C554.132 849.849 553.076 849.136 553.076 848.074V608.749V450.903C553.076 450.097 553.73 449.444 554.536 449.444H1015.78C1016.59 449.444 1017.24 450.097 1017.24 450.903V579.431C1017.24 579.706 1017.17 579.967 1017.02 580.194C1012.07 587.407 989.972 601.18 938.632 601.18C886.795 601.18 828.259 567.881 805.003 550.92C804.713 550.708 804.371 550.62 804.014 550.654Z" fill="#9BE1FF" stroke="black" stroke-width="2.91896"/>
<path d="M1016.16 200.222H559.301C558.495 200.222 557.842 200.876 557.842 201.682V308.318C557.842 309.124 558.495 309.777 559.301 309.777H1016.16C1016.96 309.777 1017.62 309.124 1017.62 308.318V201.682C1017.62 200.876 1016.96 200.222 1016.16 200.222Z" fill="#9BE1FF" stroke="black" stroke-width="2.91896"/>
<path d="M582.434 449.421V517.967" stroke="black" stroke-width="2.91896"/>
<path d="M599.363 449.421V494.7" stroke="black" stroke-width="1.45948"/>
<path d="M616.294 449.421V494.7" stroke="black" stroke-width="1.45948"/>
<path d="M633.224 449.421V494.7" stroke="black" stroke-width="1.45948"/>
<path d="M650.153 449.421V494.7" stroke="black" stroke-width="1.45948"/>
<path d="M667.083 449.421V506.262" stroke="black" stroke-width="2.91896"/>
<path d="M684.014 449.421V494.7" stroke="black" stroke-width="1.45948"/>
<path d="M700.943 449.421V494.7" stroke="black" stroke-width="1.45948"/>
<path d="M717.873 449.421V494.7" stroke="black" stroke-width="1.45948"/>
<path d="M734.803 449.421V494.7" stroke="black" stroke-width="1.45948"/>
<path d="M751.733 449.421V517.967" stroke="black" stroke-width="2.91896"/>
<path d="M751.732 309.777L751.732 241.232" stroke="black" stroke-width="2.91896"/>
<path d="M734.803 309.777L734.803 264.498" stroke="black" stroke-width="1.45948"/>
<path d="M717.872 309.777L717.872 264.498" stroke="black" stroke-width="1.45948"/>
<path d="M700.942 309.777L700.942 264.498" stroke="black" stroke-width="1.45948"/>
<path d="M684.013 309.777L684.013 264.498" stroke="black" stroke-width="1.45948"/>
<path d="M667.083 309.777L667.083 252.936" stroke="black" stroke-width="2.91896"/>
<path d="M650.152 309.777L650.152 264.498" stroke="black" stroke-width="1.45948"/>
<path d="M633.223 309.777L633.223 264.498" stroke="black" stroke-width="1.45948"/>
<path d="M616.293 309.777L616.293 264.498" stroke="black" stroke-width="1.45948"/>
<path d="M599.363 309.777L599.363 264.498" stroke="black" stroke-width="1.45948"/>
<path d="M582.433 309.777L582.433 241.232" stroke="black" stroke-width="2.91896"/>
<path d="M553.076 699.527H608.042V813.214" stroke="black" stroke-width="1.45948"/>
</svg>
